<svg width="711" height="1020" viewBox="0 0 711 1020" fill="none" xmlns="http://www.w3.org/2000/svg">
<path d="M249.662 1016.47L250.778 1011.94C306.47 1025.43 316.501 1040.55 346.305 1085.41L351.096 1092.64C354.514 1097.75 357.684 1102.61 360.687 1107.2C393.635 1157.44 405.973 1176.25 462.936 1156.74C528.444 1134.37 631.557 1070.12 683.074 1026.44C721.989 993.534 728.299 949.951 734.987 903.8C739.8 870.425 744.802 835.903 763.316 805.87C804 739.87 921.672 720.405 1025.55 703.209C1072.67 695.436 1117.2 688.063 1148.23 677.059L1149.86 681.537C1118.38 692.7 1073.75 700.081 1026.34 707.917C923.495 724.933 806.899 744.193 767.345 808.431C749.356 837.606 744.404 871.663 739.641 904.573C733.157 949.512 726.412 996.023 686.176 1030.1C634.321 1074.04 530.524 1138.69 464.607 1161.19C404.179 1181.84 390.332 1160.77 356.889 1109.79L347.322 1095.27L342.53 1088.04C313.373 1044.26 303.582 1029.55 249.662 1016.47Z" fill="url(#paint0_linear_8_15300)"/>
<path d="M236.712 1002.76L237.892 998.246C293.558 1012.52 303.736 1026.51 336.922 1073.13L344.535 1083.91C379.684 1133.82 391.484 1150.44 447.329 1131.7C516.636 1108.76 622.233 1050.34 673.051 1006.86C712.796 972.961 718.619 928.469 724.918 881.297C729.494 846.701 734.3 810.933 753.539 779.924C794.118 714.477 908.947 697.466 1010.23 682.413C1058.91 675.24 1104.77 668.377 1136.7 656.951L1138.33 661.429C1105.9 673.103 1059.74 679.924 1010.9 687.192C910.746 701.954 796.92 718.912 757.464 782.492C738.774 812.684 734.058 847.962 729.548 882.029C723.414 928.013 717.058 975.546 676.112 1010.54C624.756 1054.39 518.531 1113.14 448.838 1136.25C389.675 1155.82 376.221 1136.97 340.513 1086.3L333.163 1075.96C299.673 1029.2 290.709 1016.61 236.712 1002.76Z" fill="url(#paint1_linear_8_15300)"/>
<path d="M222.606 998.462L223.569 993.857C276.332 1004.63 287.075 1015.72 319.848 1056.43L320.638 1057.75C362.492 1109.78 371.285 1120.62 427.512 1102.79C504.136 1078.61 612.43 1034.32 665.509 989.332C706.832 954.335 712.36 906.968 718.132 856.623C722.363 819.889 726.734 781.927 746.5 749.515C786.565 683.938 898.811 671.19 997.813 659.893C1046.9 654.327 1093.22 649.048 1125.65 637.921L1127.24 642.423C1094.32 653.734 1047.73 659.011 998.391 664.616C900.425 675.732 789.223 688.405 750.618 752.132C731.272 783.695 727.047 821.079 722.842 857.306C717.22 906.255 711.254 956.825 668.619 993.094C615.049 1038.54 506.039 1083.09 429.029 1107.45C369.795 1126.35 359.628 1113.66 317.087 1060.85L316.297 1059.52C283.612 1018.88 273.981 1008.92 222.606 998.462Z" fill="url(#paint2_linear_8_15300)"/>
<path d="M208.128 1001.68L207.43 997.033C250.21 990.48 276.149 1013.56 301.288 1035.76C326.938 1058.64 351.075 1080.07 392.475 1073.57C417.938 1069.59 445.684 1057.82 472.53 1046.37C491.545 1037.86 511.03 1030.45 530.892 1024.17C537.86 1022.14 544.923 1020.28 552.308 1018.23C590.694 1007.87 630.375 997.11 659.126 971.283C700.794 933.846 706.215 882.729 711.984 828.626C716.783 783.328 721.763 736.504 750.337 699.396C794.918 641.592 889.35 637.81 980.683 634.128C1031.64 632.078 1079.84 630.146 1115.52 618.613L1117.03 623.163C1080.49 634.99 1032.25 636.842 980.859 638.818C890.474 642.535 797.294 646.226 754.052 702.252C726.422 738.2 721.298 784.509 716.639 829.125C710.956 881.542 705.266 936.143 662.277 974.747C632.68 1001.35 592.421 1012.23 553.544 1022.78C546.32 1024.74 539.176 1026.65 532.209 1028.67C512.557 1034.87 493.282 1042.21 474.482 1050.65C447.387 1062.15 419.359 1074.08 393.334 1078.13C349.734 1084.95 323.635 1061.69 298.289 1039.24C272.942 1016.78 248.748 995.436 208.128 1001.68Z" fill="url(#paint3_linear_8_15300)"/>
<path d="M192.362 1010.52L190.852 1005.97C224.568 995.169 243.002 1006.37 264.215 1019.41C272.42 1024.58 280.908 1029.27 289.639 1033.49C319.759 1047.49 326.846 1045.94 352.924 1040.34C356.893 1039.5 361.336 1038.55 366.341 1037.53C389.534 1032.94 413.266 1025.95 436.002 1018.85C462.449 1010.35 489.374 1003.43 516.637 998.106C523.995 996.833 531.53 995.673 539.289 994.433C581.002 987.917 624.048 981.261 655.043 954.262C700.081 914.983 704.717 858.885 709.653 799.447C713.824 750.164 717.887 699.419 747.689 659.89C791.3 602.011 883.614 604.555 972.935 606.92C1023.11 608.223 1070.31 609.556 1105.33 599.939L1106.68 604.585C1070.8 614.496 1023.17 613.258 972.733 611.889C884.608 609.521 793.474 607.037 751.339 663.003C722.456 701.331 718.307 751.474 714.292 800.011C709.522 857.714 704.585 917.425 658.128 957.983C626.208 985.805 582.398 992.643 540.019 999.229C532.34 1000.42 524.765 1001.61 517.431 1002.92C490.307 1008.25 463.53 1015.22 437.245 1023.78C414.188 1030.8 390.529 1037.9 367.174 1042.59C362.29 1043.54 357.767 1044.54 353.798 1045.38C327.864 1050.95 319.163 1052.8 287.567 1038.15C278.668 1033.9 270.026 1029.13 261.686 1023.86C240.811 1010.57 224.028 1000.39 192.362 1010.52Z" fill="url(#paint4_linear_8_15300)"/>
<path d="M175.98 1023.27L173.908 1019.05C201.291 1005.48 233.965 1005.65 265.523 1005.78C290.217 1005.9 315.794 1006.04 338.897 999.651C368.405 991.572 408.95 988.311 451.856 984.898C526.258 978.76 610.738 972.074 652.237 937.19C701.023 896.062 705.022 831.298 708.926 768.661C712.261 715.136 715.65 659.779 746.415 617.934C789.489 559.61 879.355 569.115 966.315 578.497C1015.15 583.761 1061.25 588.743 1095.95 581.06L1096.94 585.648C1061.49 593.449 1015.05 588.45 965.817 583.152C880.149 573.928 791.56 564.371 750.187 620.702C720.043 661.578 716.865 716.1 713.566 768.952C709.65 832.576 705.559 898.375 655.291 940.766C612.672 976.698 527.446 983.502 452.258 989.508C409.656 993.067 369.127 996.263 340.174 1004.18C316.428 1010.68 290.562 1010.6 265.531 1010.46C232.969 1010.38 202.35 1010.19 175.98 1023.27Z" fill="url(#paint5_linear_8_15300)"/>
<path d="M156.715 1034.19C200.983 1006.43 271.366 969.281 321.357 953.426C362.298 940.395 412.516 944.236 465.712 948.32C534.238 953.634 605.284 958.974 652.996 924.37C706.028 885.892 710.112 810.834 714.002 738.29C716.85 686.143 719.736 632.23 741.314 593.618C783.453 517.98 871.479 534.737 956.512 551.04C1002.03 559.801 1048.86 568.928 1086.54 562.413L1087.36 566.993C1048.97 573.497 1001.54 564.456 955.653 555.638C872.376 539.814 786.012 523.105 745.384 595.882C724.267 633.62 721.825 684.435 718.658 738.516C714.723 812.176 710.595 888.349 655.752 928.178C606.785 963.693 534.993 958.198 465.48 952.872C412.813 948.853 362.835 945.142 322.955 957.759C273.294 973.528 203.377 1010.45 159.35 1038.07L156.715 1034.19Z" fill="url(#paint6_linear_8_15300)"/>
<path d="M142.076 1053.52L139.682 1049.5C166.253 1034.01 185.789 1009.91 204.672 986.633C228.603 957.191 253.299 926.748 292.46 913.197C339.055 897.128 398.787 907.893 456.48 918.345C527.276 931.135 600.494 944.335 651.139 909.076C707.231 869.974 710.62 787.159 713.87 707.04C716.325 647.826 718.577 591.839 740.513 551.816C784.063 472.233 867.244 497.048 947.746 521.115C992.231 534.361 1038.2 548.085 1076.99 544.071L1077.48 548.738C1037.72 552.676 991.301 538.837 946.294 525.357C864.035 500.81 786.308 477.653 744.592 553.91C723.197 593.013 720.924 648.413 718.535 707.098C715.2 788.356 711.791 872.328 653.759 912.747C601.569 949.253 527.364 935.768 455.63 922.774C398.514 912.468 339.577 901.666 293.97 917.474C256.08 930.596 232.931 959.246 208.299 989.432C189.198 1013.17 169.411 1037.58 142.076 1053.52Z" fill="url(#paint7_linear_8_15300)"/>
<path d="M122.339 1063.74C140.68 1043.95 154.594 1016.16 169.171 986.838C193.134 938.961 217.962 889.426 264.251 873.757C314.534 856.746 379.607 873.65 442.723 889.919C517.742 909.349 595.312 929.495 649.099 893.291C681.745 871.357 691.009 809.672 697.124 768.874L699.423 754.43C703.114 732.075 704.833 706.316 706.831 679.193C710.757 621.719 715.087 556.595 739.765 510.744C784.565 427.312 863.401 459.562 939.575 490.727C982.865 508.553 1027.89 526.818 1067.68 525.313L1067.86 530.003C1027.06 531.56 981.54 513.1 937.794 495.056C860.104 463.268 786.664 433.31 743.852 512.943C719.699 557.937 715.33 622.539 711.398 679.363C709.528 706.791 707.776 732.679 704.076 755.203L701.754 769.606C695.627 811.391 686.103 874.103 651.814 897.396C596.265 934.757 517.669 914.351 441.663 894.637C379.414 878.45 315.006 861.75 266.033 878.308C221.545 893.341 197.178 942.003 173.635 989.03C158.647 1018.76 144.709 1046.78 125.94 1067.05L122.339 1063.74Z" fill="url(#paint8_linear_8_15300)"/>
<path d="M105.916 1074.5C124.846 1049.56 135.433 1013.34 146.406 974.668C162.447 919.247 178.921 861.988 222.968 839.808C281.274 810.558 356.089 835.776 428.449 860.166C505.829 886.309 585.831 913.288 641.879 870.999C704.253 823.964 704.06 736.96 703.889 652.83C703.553 579.041 703.523 502.563 745.237 452.023C786.419 402.236 811.036 403.604 869.755 433.17C887.041 441.898 902.392 450.851 917.19 459.426C960.325 484.589 997.564 506.343 1057.48 506.703L1057.46 511.344C996.407 511.172 958.623 489.144 914.734 463.72C899.952 455.082 884.666 446.144 867.42 437.393C810.377 408.628 787.83 407.444 748.647 455.007C708.013 504.25 708.206 579.813 708.4 652.815C708.592 738.077 708.789 826.278 644.403 874.782C586.166 918.701 504.977 891.284 426.482 864.824C355.245 840.583 281.554 815.514 225.057 843.959C182.811 865.231 166.582 921.527 151.026 975.842C139.819 1014.77 129.19 1051.55 109.744 1077.18L105.916 1074.5Z" fill="url(#paint9_linear_8_15300)"/>
<path d="M90.1379 1080.02C123.124 1029.82 128.563 996.674 136.133 950.815C138.408 936.331 141.219 919.73 145.122 901.117C152.03 867.966 165.084 821.895 198.196 804.588C258.662 773.018 337.824 803.712 414.333 833.424C494.93 864.79 578.839 897.236 637.243 853.599C701.991 805.152 701.05 713.688 700.14 625.204C699.303 547.736 698.483 467.642 741.375 415.42C743.883 398.399 750.341 386.002 760.547 378.622C771.589 370.634 787.076 368.283 806.884 371.914L807.51 372.141L864.378 400.519C881.521 411.021 896.723 421.371 911.218 431.542C952.102 460.062 987.395 484.771 1047.56 487.653L1047.35 492.349C985.701 489.429 950.023 464.349 908.539 435.37C894.092 425.28 879.108 414.746 862.14 404.63L805.728 376.47C787.46 373.23 773.187 375.24 763.279 382.389C754.031 389.091 748.186 400.688 745.922 416.746L745.864 417.38L745.301 417.715C703.183 468.767 703.981 548.275 704.796 625.157C705.751 714.814 706.695 807.474 640.056 857.319C579.543 902.538 494.817 869.543 412.68 837.786C337.125 808.487 258.957 778.182 200.349 808.755C169.014 825.114 156.43 869.869 149.727 902.081C145.888 920.711 143.262 936.984 140.723 951.571C133.11 997.999 127.598 1031.57 94.0626 1082.59L90.1379 1080.02Z" fill="url(#paint10_linear_8_15300)"/>
<path d="M75.4837 1078.55C108.815 1023.9 112.83 986.803 118.348 935.574C120.173 918.687 122.215 899.602 125.622 878.233C129.981 850.685 139.117 793.271 176.782 773.363C238.938 740.515 321.226 775.178 400.843 808.925C484.373 844.212 570.804 880.714 630.746 835.998C697.111 786.425 695.588 691.604 694.103 599.865C692.778 519.473 691.44 436.31 735.437 382.558C737.754 365.216 744.116 352.658 754.297 345.237C765.299 337.273 780.994 335.18 800.778 339.043L801.507 339.263L857.232 370.937C874.412 382.507 889.222 394.397 903.449 405.763C942.476 437.022 976.117 463.804 1036.86 468.303L1036.53 472.966C974.27 468.39 940.086 441.06 900.65 409.39C886.488 398.04 871.838 386.327 854.874 374.847L799.654 343.471C781.266 340.03 767.042 341.848 757.174 348.973C747.926 355.675 742.153 367.392 740.081 383.772L740.023 384.406L739.579 384.942C696.261 437.363 697.618 519.916 698.968 599.803C700.433 692.698 701.96 788.716 633.687 839.751C571.62 886.112 483.93 849.052 399.166 813.246C320.639 780.05 239.249 745.887 179.216 777.635C143.633 796.467 134.736 852.268 130.612 879.022C127.279 900.239 125.213 919.284 123.404 936.107C118.019 986.004 113.755 1025.43 79.8663 1081.06L75.4837 1078.55Z" fill="url(#paint11_linear_8_15300)"/>
<path d="M62.096 1068.32C96.6377 1011.86 99.6158 970.64 103.564 918.329C104.913 899.818 106.456 878.796 109.669 855.363C114.047 822.355 121.353 767.174 159.855 746.932C223.361 713.607 307.254 750.694 388.389 786.534C473.412 824.146 561.36 863.015 622.1 817.443C689.287 767.054 687.369 670.288 685.473 576.669C683.826 494.453 682.124 409.49 726.871 354.802C729.228 337.436 735.566 324.838 745.812 317.433C756.831 309.405 772.461 307.295 792.405 311.063L793.183 311.363L848.235 345.018C865.643 357.705 880.138 370.437 894.224 382.758C931.641 415.52 963.968 443.847 1025.84 448.325L1025.51 452.989C962.097 448.393 929.331 419.51 891.185 386.255C877.187 373.991 862.741 361.339 845.66 348.838L791.137 315.523C772.773 312.122 758.468 313.987 748.585 321.177C739.321 327.943 733.548 339.66 731.475 356.04L731.4 356.738L730.957 357.274C686.977 410.688 688.585 494.944 690.21 576.574C692.126 671.325 694.032 769.352 624.953 821.139C562.008 868.405 472.777 828.937 386.52 790.806C306.402 755.396 223.801 718.739 162.048 751.075C125.75 770.169 118.586 823.849 114.276 855.781C111.176 879.038 109.725 899.025 108.292 918.402C104.447 971.252 101.443 1012.98 66.3033 1070.45L62.096 1068.32Z" fill="url(#paint12_linear_8_15300)"/>
<path d="M49.2892 1048.26C83.3081 992.113 86.7774 950.439 91.1767 897.696C92.8018 878.367 94.445 858.429 97.6646 835.374C102.58 800.248 110.063 747.196 147.681 727.207C211.1 693.553 295.161 730.648 376.465 766.497C461.568 804.061 549.557 842.906 610.433 797.471C677.893 747.083 675.365 650.299 673.221 556.446C671.147 474.429 669.423 389.153 713.985 334.52C716.39 317.235 722.816 304.693 733.078 297.224C744.137 289.172 759.607 286.885 779.584 290.525L780.362 290.825L835.597 324.697C853.126 337.585 867.74 350.518 881.882 363.024C919.217 396.107 951.294 424.746 1013.57 428.713L1013.26 433.417C949.584 429.196 916.746 400.193 878.667 366.409C864.613 353.959 850.111 341.123 832.799 328.324L778.132 294.767C759.84 291.487 745.567 293.497 735.643 300.71C726.339 307.5 720.501 319.201 718.26 335.572L718.186 336.27L717.663 336.582C673.642 390.02 675.683 474.454 677.686 556.077C680.035 651.007 682.43 749.124 612.998 800.957C549.973 847.998 460.685 808.619 374.348 770.535C294.102 735.092 211.083 698.467 149.666 731.093C114.148 749.941 106.919 801.589 102.055 835.703C98.8036 858.614 97.1363 878.512 95.4471 897.824C91.0297 951.177 87.5106 993.317 52.9104 1050.41L49.2892 1048.26Z" fill="url(#paint13_linear_8_15300)"/>
<path d="M33.798 1022.23C66.9109 968.036 72.7209 927.366 80.1667 875.807C82.6776 857.968 85.4702 839.961 89.3488 819.019C95.4502 786.893 105.706 733.008 141.233 713.991C203.656 680.494 286.866 715.426 367.286 749.24C451.69 784.714 538.995 821.404 599.235 776.457C666.26 726.437 662.661 630.781 659.067 538.336C656.027 457.166 652.82 373.153 696.884 318.872C699.289 301.586 705.651 289.028 715.913 281.559C726.931 273.531 742.442 271.22 762.379 274.884L763.132 275.144L819.502 308.45C837.208 320.905 852.177 333.519 866.697 345.745C905.495 378.448 939.01 406.667 1001.06 410.713L1000.73 415.376C937.204 411.229 903.129 382.526 863.465 349.467C849.057 337.337 834.176 324.78 816.798 312.511L760.917 279.568C742.649 276.328 728.352 278.298 718.492 285.527C708.632 292.757 703.391 303.994 701.109 320.389L701.011 321.047L700.567 321.583C657.271 374.591 660.4 457.833 663.418 538.416C666.935 632.105 670.546 729.062 601.549 780.529C539.2 827.058 450.66 789.849 365.022 753.856C285.58 720.496 203.428 685.969 143.007 718.438C109.282 736.546 99.2562 788.987 93.286 820.327C89.2877 841.067 86.7595 859.243 84.193 876.898C76.6169 928.971 70.7169 970.13 37.1999 1025.11L33.798 1022.23Z" fill="url(#paint14_linear_8_15300)"/>
<path d="M15.4416 991.201C34.8103 962.24 45.2395 918.44 56.3199 872.073C72.8189 802.867 89.9203 731.287 139.232 705.32C200.446 673.087 281.814 704.375 360.545 734.618C443.885 766.748 529.967 799.644 588.753 754.908C654.317 704.995 648.887 611.572 643.64 521.2C639.005 441.743 634.234 359.587 677.108 305.687C679.376 288.537 685.722 276.043 695.88 268.582C706.898 260.554 722.408 258.243 742.514 261.915L743.244 262.135L801.455 294.509C819.484 306.499 835.113 318.666 850.084 330.46C890.955 362.529 926.198 390.264 988.821 393.806L988.532 398.446C924.456 394.842 888.661 366.727 847.165 334.159C832.217 322.404 816.661 310.359 798.799 298.65L741.053 266.599C722.712 263.238 708.295 265.28 698.395 272.534C689.171 279.276 683.454 290.905 681.431 307.092L681.332 307.75L680.809 308.061C638.559 360.446 643.371 442.032 647.96 520.863C653.42 612.416 658.805 707.228 591.229 758.611C530.27 804.912 442.945 771.394 358.562 739.067C280.794 709.069 200.452 678.314 141.135 709.527C93.6822 734.497 76.8815 805.026 60.6029 873.229C49.4487 920.021 38.8816 964.231 19.0368 993.856L15.4416 991.201Z" fill="url(#paint15_linear_8_15300)"/>
<path d="M-5.10847 956.302C15.2612 930.396 29.7981 891.943 44.9623 850.882C68.2373 788.486 92.2824 723.998 140.396 700.596C200.002 671.608 278.547 697.603 354.509 722.736C440.519 751.208 521.734 778.119 578.666 733.288C642.086 683.343 634.27 592.866 626.733 505.328C620.075 428.055 613.225 348.171 654.588 294.844C656.742 277.87 662.927 265.472 673.004 258.059C684.015 249.926 699.775 247.576 720.016 251.385L720.642 251.613L781.298 282.695C799.939 294.158 816.139 305.82 831.811 317.144C875.206 348.419 912.619 375.408 976.344 378.239L976.143 382.935C911.077 380.139 873.087 352.731 829.156 321.012C813.532 309.769 797.397 298.123 779.043 286.87L718.74 256.013C700.022 252.66 685.516 254.645 675.64 261.939C666.537 268.609 660.981 280.142 659.007 296.137L658.972 296.811L658.569 297.324C617.854 349.176 624.697 428.409 631.262 504.976C638.778 593.942 646.823 685.537 581.479 737.008C522.663 783.342 436.437 754.781 353.032 727.211C277.992 702.346 200.234 676.483 142.469 704.811C95.9956 727.4 72.2828 790.982 49.3238 852.536C33.9422 893.781 19.3794 932.74 -1.62614 959.133L-5.10847 956.302Z" fill="url(#paint16_linear_8_15300)"/>
<path d="M-27.2712 918.603C-4.84048 895.611 14.0111 863.035 33.9612 828.552C64.7343 775.369 96.5974 720.449 144.015 698.714C200.841 672.743 276.203 692.84 349.078 712.238C434.065 735.053 514.64 756.406 568.801 711.862C629.356 661.769 618.919 574.759 608.752 490.583C599.622 415.654 590.29 338.555 629.795 285.951C631.733 269.161 637.74 256.923 647.673 249.541C658.7 241.345 674.604 238.963 695.303 242.991L695.864 243.202L759.271 272.865C778.597 283.648 795.601 294.832 811.965 305.58C858.229 335.91 898.126 362.13 963.276 363.786L963.115 368.458C896.721 366.725 856.215 340.214 809.398 309.505C793.058 298.797 776.142 287.67 757.322 276.913L694.308 247.451C675.245 243.976 660.596 245.72 650.678 253.31C641.72 259.949 636.301 271.346 634.584 287.133L634.526 287.767L634.122 288.28C595.184 339.456 604.389 415.976 613.347 489.974C623.605 575.402 634.262 663.698 571.727 715.406C515.762 761.677 430.422 738.909 347.89 716.922C275.824 697.697 201.321 677.851 145.975 703.105C99.8518 724.178 68.4484 778.498 38.0469 831.024C17.9273 865.771 -1.06979 898.652 -23.8711 922.028L-27.2712 918.603Z" fill="url(#paint17_linear_8_15300)"/>
<path d="M-50.3982 879.19C-25.8039 859.65 -2.6894 833.963 21.8272 806.788C60.8024 763.544 101.075 718.819 149.13 698.613C202.033 676.393 273.435 690.02 342.4 703.028C423.951 718.515 508.207 734.519 559.028 689.946C616.204 639.576 602.96 556.361 590.083 475.869C578.494 403.764 566.56 329.249 604.642 277.274C645.871 220.975 680.015 234.6 736.881 263.524C756.676 273.538 774.501 284.179 791.686 294.384C841.044 323.69 883.642 348.956 950.466 349.398L950.434 354.103C882.469 353.576 839.263 328.019 789.376 298.374C772.376 288.113 754.485 277.729 734.771 267.667C674.066 236.778 645.617 229.244 608.454 280.018C571.291 330.792 583.294 403.959 594.726 475.067C607.823 556.845 621.376 641.402 562.139 693.434C509.642 739.494 424.216 723.261 341.742 707.506C273.371 694.58 202.746 681.253 151.098 702.835C104 722.636 63.9936 766.984 25.4293 809.82C0.839837 837.148 -22.4115 862.971 -47.3438 882.766L-50.3982 879.19Z" fill="url(#paint18_linear_8_15300)"/>
<path d="M-71.5226 843.052L-73.917 839.029C-48.3745 823.829 -23.1454 806.363 3.62096 787.819C52.301 754.11 102.679 719.227 154.932 699.301C202.586 681.076 269.091 688.029 333.397 694.764C416.441 703.425 502.279 712.384 549.47 668.119C603.379 617.568 587.079 538.188 571.371 461.451C557.17 392.371 542.544 320.93 578.513 269.613C617.443 214.028 655.288 227.739 713.879 254.711C734.438 264.27 753.004 274.143 770.986 283.765C823.576 311.91 868.962 336.28 937.605 335.476L937.653 340.133C867.814 340.94 821.93 316.376 768.883 288.012C750.926 278.431 732.376 268.493 711.977 259.112C653.947 232.351 619.293 219.792 582.413 272.414C547.582 322.073 562.051 392.518 575.99 460.609C591.982 538.648 608.567 619.33 552.733 671.68C504.011 717.401 417.05 708.293 332.97 699.54C269.114 692.919 203.259 685.96 156.666 703.772C105.016 723.611 54.8074 758.23 6.32853 791.82C-20.5097 810.243 -45.8595 827.78 -71.5226 843.052Z" fill="url(#paint19_linear_8_15300)"/>
<path d="M-95.4367 803.508L-97.3081 799.173C-33.4442 771.574 33.3399 746.869 97.9134 722.934C118.798 715.192 139.641 707.473 160.333 699.682C203.308 683.479 262.294 684.936 324.747 686.454C408.818 688.51 495.731 690.673 539.792 646.364C590.306 595.6 571.174 519.974 552.692 446.904C535.864 380.641 518.642 312.434 552.417 261.824C590.913 204.045 635.043 222.46 690.91 245.769C712.129 254.608 731.5 264.002 750.262 273.104C806.043 300.114 854.227 323.418 924.632 321.457L924.785 326.106C853.295 328.167 804.607 304.565 748.305 277.321C729.567 268.258 710.139 258.952 689.192 250.114C627.586 224.391 591.044 212.412 556.405 264.408C523.785 313.296 540.818 380.636 557.289 445.749C576.119 520.137 595.695 597.242 543.184 649.685C497.714 695.378 409.733 693.251 324.715 691.159C262.703 689.651 204.159 688.204 162.02 704.072C141.328 711.864 120.444 719.606 99.6 727.325C35.1471 751.187 -31.7739 776.029 -95.4367 803.508Z" fill="url(#paint20_linear_8_15300)"/>
<path d="M-118.504 765.203L-119.933 760.605C-76.1006 747.216 -30.9169 739.941 12.8128 732.878C63.0973 724.748 115.085 716.367 164.704 698.607C227.579 676.119 286.709 670.679 349.509 664.908C358.849 664.035 368.293 663.155 377.922 662.22C386.362 661.392 395.597 660.8 405.393 660.147C448.811 657.41 502.86 653.959 530.098 624.674C577.473 573.761 555.704 501.667 534.634 431.935C515.507 368.674 495.721 303.3 527.375 253.244C563.444 196.147 609.954 213.8 668.77 236.115C690.577 244.387 710.689 253.286 730.167 261.853C789.116 287.686 839.775 310.116 911.886 307.085L912.102 311.751C838.883 314.842 785.153 291.188 728.257 266.15C708.843 257.598 688.796 248.716 667.077 240.501C610.265 218.899 565.375 201.863 531.388 255.868C500.881 304.098 520.341 368.468 539.182 430.7C560.617 501.685 582.839 575.09 533.595 627.987C505.092 658.624 450.039 662.128 405.746 664.949C396.03 665.555 386.795 666.147 378.419 666.991C368.79 667.927 359.346 668.807 350.006 669.679C284.877 675.747 228.613 681.061 166.414 703.31C116.401 721.141 64.1642 729.561 13.671 737.707C-29.9219 744.634 -75.0326 751.756 -118.504 765.203Z" fill="url(#paint21_linear_8_15300)"/>
<path d="M-140.19 729.127L-141.154 724.579C-95.1741 714.706 -48.1373 714.665 -2.63368 714.61C53.6836 714.603 111.767 714.635 167.028 695.371C238.798 670.532 300.099 659.496 372.819 647.603C381.302 646.206 390.618 645.02 400.497 643.772C442.447 638.477 494.652 631.927 520.107 602.941C564.913 551.922 540.725 482.902 517.332 416.133C496.109 355.482 474.123 292.724 503.823 243.231C537.731 186.712 587.405 204.007 644.92 224.046L647.767 225.076C670.106 232.868 690.893 241.256 710.967 249.36C772.512 274.247 825.608 295.554 899.199 291.806L899.48 296.488C824.9 300.497 768.558 277.853 709.186 253.689C689.176 245.601 668.453 237.229 646.266 229.511L643.379 228.505C585.567 208.425 539.783 192.356 507.861 245.623C479.283 293.249 500.856 354.945 521.753 414.591C545.615 482.607 570.257 552.938 523.628 606.021C497.013 636.352 443.812 643.059 401.091 648.431C391.252 649.655 382 650.857 373.598 652.207C301.167 664.036 240.115 675.033 168.65 699.745C112.747 719.119 54.1012 719.149 -2.5934 719.162C-47.9447 719.29 -94.6847 719.373 -140.19 729.127Z" fill="url(#paint22_linear_8_15300)"/>
<path d="M-159.849 696.367L-160.563 691.78C-111.886 684.061 -62.3559 689.674 -14.479 695.071C45.6118 701.864 107.717 708.928 166.521 688.754C231.909 665.951 298.572 646.983 366.17 631.946C374.888 630.028 384.519 628.273 394.713 626.456C435.233 619.124 485.697 610.015 509.64 581.601C552.721 530.52 526.735 463.877 501.197 399.637C478.136 341.115 454.248 280.47 482.47 231.421C514.505 175.417 567.078 192.459 622.585 210.587L628.479 212.528C651.205 219.871 672.532 227.883 693.105 235.636C754.279 258.619 812.247 280.241 886.586 275.83L886.867 280.512C811.322 285.095 753.083 263.199 691.452 239.998C670.903 232.285 649.479 224.385 627.042 216.979L621.148 215.038C565.152 196.819 516.789 181.086 486.531 233.853C459.472 281.012 482.875 340.475 505.546 397.976C531.376 463.622 558.081 531.471 513.162 584.681C488.098 614.416 436.742 623.675 395.5 631.164C385.346 632.957 375.795 634.664 367.101 636.623C299.673 651.606 233.181 670.526 167.966 693.287C108.182 713.555 45.6033 706.609 -15.0008 699.686C-62.5809 694.33 -111.814 688.758 -159.849 696.367Z" fill="url(#paint23_linear_8_15300)"/>
<path d="M-176.817 667.945L-177.451 663.31C-126.086 656.171 -74.3468 665.863 -24.3322 675.218C40.1958 687.27 101.146 698.618 162.257 677.561L186.29 669.252C243.48 649.385 297.478 630.654 357.69 614.491C366.85 612.036 376.99 609.762 387.739 607.506C428.771 598.289 475.394 588.033 498.965 560.276C542.012 509.869 514.061 444.777 486.946 381.639C462.443 324.629 437.079 265.624 464.112 216.956C495.054 161.221 547.678 177.524 603.413 194.754L611.553 197.265C634.553 204.337 656.258 212.069 677.249 219.518C740.071 242.066 799.269 263.01 874.317 258.232L874.597 262.914C798.667 267.673 738.843 246.501 675.644 223.961C654.814 216.416 633.052 208.771 610.14 201.756L602.001 199.245C548.174 182.568 497.291 166.81 468.182 219.22C442.305 265.893 467.19 323.82 491.263 379.832C518.703 444.248 547.364 510.716 502.399 563.3C477.748 592.08 430.393 602.663 388.639 612.037C377.961 614.414 367.902 616.641 358.75 618.927C298.747 635.075 244.909 653.983 187.68 673.601L163.607 681.934C101.474 703.381 37.0507 691.321 -25.1271 679.832C-74.8447 670.518 -126.199 660.924 -176.817 667.945Z" fill="url(#paint24_linear_8_15300)"/>
<path d="M-190.545 644.786L-191.259 640.199C-137.128 631.577 -83.8787 643.53 -32.3145 655.124C31.3468 669.38 91.4704 682.909 153.026 661.043C164.129 657.123 175.134 653.19 186.039 649.243C239.959 630.014 291.275 611.626 346.566 595.067C356.322 592.149 367.314 589.476 379.029 586.645C419.22 576.839 464.674 565.808 487.036 539.315C530.061 488.322 501.311 424.359 473.557 362.528C448.385 306.406 422.32 248.419 449.144 199.493C479.79 143.717 534.524 160.18 587.59 176.22L597.294 179.163C620.447 186.034 642.393 193.623 663.586 200.952C727.252 222.997 787.086 243.727 862.165 239.093L862.445 243.775C786.588 248.382 726.113 227.489 662.062 205.346C640.893 198.057 619.011 190.484 595.986 183.646L586.242 180.727C532.662 164.557 482.09 149.322 453.432 201.573C427.738 248.463 453.19 305.236 478.02 360.417C506.379 423.632 535.71 488.938 490.751 542.171C467.365 569.873 421.011 581.222 380.097 591.186C368.487 594.009 357.559 596.698 347.875 599.464C292.664 615.975 241.614 634.259 187.573 653.56C176.652 657.48 165.648 661.414 154.561 665.36C91.6141 687.727 28.1137 673.375 -33.4138 659.592C-84.3851 648.354 -137.329 636.273 -190.545 644.786Z" fill="url(#paint25_linear_8_15300)"/>
<path d="M-197.351 623.556L-198.089 618.928C-143.451 610.059 -90.0027 622.439 -38.3676 634.426C24.8187 649.075 84.4833 662.931 146.296 641.13C167.307 633.693 188.448 626.016 208.85 618.56C249.596 603.738 291.709 588.375 334.498 574.789C344.424 571.606 355.633 568.75 367.478 565.678C406.288 555.658 450.186 544.301 472.129 518.384C514.588 468.272 487.908 404.767 462.136 343.336C438.784 287.711 414.524 230.011 441.049 181.863C471.405 126.423 523.79 142.051 579.286 158.605L588.109 160.983C610.573 167.61 631.886 174.868 652.51 181.882C715.52 203.282 774.954 223.432 849.445 219.366L849.661 224.032C774.294 228.456 714.218 208.143 650.92 186.533C630.4 179.511 609.071 172.318 586.671 165.706L577.938 163.112C524.326 147.071 473.721 131.964 445.184 184.143C419.845 230.441 443.556 286.942 466.454 341.529C492.864 404.215 519.98 469.095 475.659 521.296C452.749 548.333 408.048 559.896 368.538 570.114C356.694 573.186 345.549 576.059 335.784 579.145C293.099 592.724 250.947 607.838 210.36 622.838C189.918 630.317 168.801 638.034 147.605 645.526C84.5629 667.733 21.4006 653.125 -39.6519 638.95C-90.6051 627.102 -143.564 614.812 -197.351 623.556Z" fill="url(#paint26_linear_8_15300)"/>
<path d="M-195.086 600.36L-195.8 595.772C-141.09 587.024 -87.9741 600.31 -36.5746 613.091C26.287 628.75 85.6835 643.528 147.376 621.526C167.44 614.327 194.393 606.623 222.881 598.387C308.242 573.96 414.488 543.533 454.453 497.193C496.353 448.613 473.451 386.237 451.263 325.888C431.199 271.303 410.451 214.837 436.996 167.821C467.984 112.985 519.961 128.202 575.002 144.265L581.562 146.136C603.16 152.407 623.624 159.244 643.31 165.781C704.485 186.203 762.26 205.487 834.962 201.07L835.243 205.752C761.641 210.214 703.457 190.791 641.833 170.256C622.163 163.655 601.787 156.874 580.278 150.66L573.693 148.748C518.315 132.668 470.277 118.486 441.09 170.124C415.644 215.234 436.002 270.678 455.7 324.282C478.333 385.838 501.705 449.46 458.055 500.225C417.139 547.621 310.153 578.271 224.198 602.888C195.742 610.996 168.894 618.692 148.975 625.86C86.0762 648.307 23.0939 632.72 -37.7143 617.583C-88.6809 604.98 -141.388 591.832 -195.086 600.36Z" fill="url(#paint27_linear_8_15300)"/>
<path d="M-185.421 575.594L-186.055 570.959C-131.784 563.67 -78.9335 577.059 -27.7188 589.896C39.2084 606.895 102.454 622.924 167.882 595.757C187.724 587.545 214.786 578.742 243.358 569.366C314.263 546.186 402.513 517.369 439.907 478.608C481.572 435.398 463.84 370.272 446.849 307.212C434.017 259.928 420.732 211.062 433.119 172.199C453.899 106.983 501.042 113.526 565.418 129.809C591.727 136.491 616.105 144.322 639.73 151.894C696.874 170.301 750.898 187.677 819.465 183.541L819.746 188.223C750.28 192.404 695.838 174.785 638.293 156.344C614.757 148.83 590.539 141.176 564.238 134.325C500.238 118.309 457.157 112.182 437.57 173.637C425.589 211.168 438.699 259.376 451.357 306C468.834 370.242 486.914 436.687 443.372 481.776C405.18 521.394 316.336 550.401 244.917 573.724C216.424 583.052 189.467 591.847 169.77 600.028C102.935 627.76 35.9914 610.825 -28.7541 594.381C-79.6642 581.689 -132.065 568.414 -185.421 575.594Z" fill="url(#paint28_linear_8_15300)"/>
<path d="M-170.117 549.597L-170.711 544.937C-118.049 538.606 -65.9337 553.414 -15.4631 567.838C51.8979 587.03 115.626 605.061 179.389 576.651C193.959 570.105 211.991 562.697 231.205 555.077C297.049 528.425 379.365 495.131 417.464 456.822C459.027 415.089 447.571 353.093 436.422 292.986C428.071 247.558 419.541 200.547 433.803 162.639C457.747 99.3541 504.635 105.286 563.383 119.524C588.321 125.551 611.16 132.718 633.31 139.641C686.823 156.341 737.329 172.106 802.407 166.777L802.792 171.451C736.927 176.922 686.132 160.947 632.049 144.205C609.964 137.298 587.173 130.212 562.403 124.194C505.941 110.502 460.915 104.77 438.3 164.43C424.331 201.183 432.912 247.455 441.153 292.24C452.443 353.408 464.136 416.625 420.833 460.102C382.025 499.051 299.355 532.392 232.989 559.355C213.911 567.113 195.83 574.44 181.317 580.897C115.89 610.08 48.7212 590.937 -16.7876 572.386C-66.7208 558.132 -118.458 543.318 -170.117 549.597Z" fill="url(#paint29_linear_8_15300)"/>
<path d="M-150.932 522.706L-151.334 518.096C-99.0388 513.618 -48.4131 529.584 0.560528 545.062C62.2126 564.546 120.369 582.733 180.729 563.158C233.839 545.773 351.562 474.954 390.673 432.12C429.783 389.286 425.09 333.072 420.528 278.634C416.499 230.034 412.404 179.949 438.56 138.504C464.716 97.0591 512.623 100.586 551.703 107.677C580.832 113.253 609.572 120.7 637.743 129.974C683.622 144.188 723.27 156.444 785.18 150.549L785.645 155.176C722.78 161.204 682.723 148.81 636.33 134.465C608.366 125.232 579.832 117.825 550.909 112.291C513.256 105.494 466.768 102.43 442.686 140.952C417.426 180.883 421.395 230.39 425.346 278.218C429.961 333.66 434.738 391.022 394.282 435.256C354.681 478.546 235.912 549.988 182.335 567.596C120.688 587.937 61.7146 569.201 -0.731407 549.482C-49.4167 534.213 -99.5934 518.361 -150.932 522.706Z" fill="url(#paint30_linear_8_15300)"/>
<path d="M-129.53 495.422L-129.771 490.716C-64.3311 487.733 -25.8868 497.6 35.5354 520.817L53.2458 527.603C111.916 550.223 150.648 565.15 208.753 538.308C255.754 516.604 330.795 451.68 369.145 412.512C409.462 371.249 411.584 320.079 413.933 265.995C415.639 225.752 417.374 184.183 436.456 147.601C468.228 86.5782 520.287 96.8973 575.394 107.854L579.525 108.664C600.143 112.74 617.308 117.236 634.136 121.442C676.984 132.393 710.896 141.143 767.356 134.786L767.886 139.429C710.349 145.99 676.124 137.263 632.803 126.158C616.16 121.897 598.939 117.489 578.513 113.462L574.317 112.635C518.697 101.548 470.602 92.0309 440.43 149.977C421.865 185.597 420.116 226.684 418.547 266.518C416.348 319.205 414.03 373.707 372.44 416.218C333.808 455.553 258.202 521.086 210.736 543.013C150.902 570.61 111.312 555.432 51.5592 532.366L33.8729 525.62C-26.9144 502.189 -64.9497 492.46 -129.53 495.422Z" fill="url(#paint31_linear_8_15300)"/>
<path d="M-107.638 467.957L-107.75 463.283C-42.4597 461.696 -6.07268 472.134 55.8792 497.705C62.9904 500.501 69.7635 503.554 76.505 506.461C128.473 528.711 173.315 547.956 224.603 519.178C252.628 503.481 280.989 467.48 306.293 435.587C319.776 418.519 332.492 402.452 344.32 390.292C383.002 350.491 392.375 303.451 402.215 253.627C409.815 215.324 417.677 175.722 440.263 140.269C481.272 75.8201 559.916 91.7303 635.937 107.077C677.677 115.527 717.116 123.494 749.575 118.453L750.313 123.08C717.003 128.247 677.203 120.222 635.013 111.658C560.646 96.5265 483.461 81.0552 444.205 142.773C422.086 177.457 414.322 216.674 406.836 254.528C397.403 302.748 387.345 352.756 347.545 393.331C335.894 405.331 323.234 421.31 309.848 438.266C284.439 470.44 255.587 506.897 226.757 523.072C173.676 552.863 127.614 533.309 74.5398 510.573C67.7983 507.665 60.9687 504.701 53.9782 501.833C-7.20461 476.73 -43.1827 466.431 -107.638 467.957Z" fill="url(#paint32_linear_8_15300)"/>
<path d="M-87.023 440.814L-86.9263 436.126C-15.3361 437.437 23.1935 452.756 85.0438 479.804C90.3745 482.08 96.1774 484.783 102.285 487.632C141.447 505.844 195.019 530.79 233.271 508.572C257.187 494.666 273.155 460.265 288.597 426.993C299.509 403.501 309.782 381.314 322.534 366.588C351.794 332.831 369.045 289.875 385.783 248.531C403.754 203.948 422.347 157.85 455.831 123.867C503.43 75.7096 561.109 85.6803 622.375 96.1863C658.721 102.344 696.262 108.771 731.954 102.296L732.796 106.916C696.318 113.532 658.311 107.055 621.58 100.8C561.55 90.5396 504.857 80.8536 459.159 127.172C426.36 160.475 408.739 204.087 390.152 250.29C373.3 292.083 355.816 335.286 326.096 369.645C313.771 383.898 303.579 405.764 292.853 428.928C277.104 462.873 260.788 497.971 235.625 512.619C195.137 536.114 140.363 510.521 100.351 491.889C94.2439 489.04 88.4648 486.376 83.1743 484.076C21.9092 457.279 -16.2354 442.058 -87.023 440.814Z" fill="url(#paint33_linear_8_15300)"/>
<path d="M-69.0114 414.241L-69.5411 409.598C-37.0762 405.758 -4.16806 408.559 27.1841 417.831C58.5362 427.103 87.6777 442.653 112.838 463.536C159.049 502.016 207.575 507.954 257.162 481.169C273.862 464.475 275.517 441.261 277.321 416.65C279.125 392.04 280.84 367.645 296.61 346.274L297.254 345.892C337.45 318.507 367.915 279.068 384.263 233.254C402.987 183.705 431.764 138.569 468.781 100.688C513.148 67.693 564.413 75.215 614.001 82.4818C647.533 87.4806 682.101 92.5717 714.775 85.604L715.842 90.4174C682.22 97.3495 647.316 92.2411 613.535 87.2815C562.631 79.8171 514.567 72.7325 472.052 104.353C435.59 141.729 407.242 186.237 388.784 235.086C372.054 281.604 341.051 321.64 300.204 349.475C285.441 369.702 283.703 393.783 282.032 417.061C280.177 442.683 278.446 466.869 260.264 484.826L259.982 484.994L259.701 485.161C208.119 513.079 157.715 507.005 109.847 467.114C85.1614 446.654 56.5807 431.418 25.8365 422.329C-4.9078 413.241 -37.1755 410.489 -69.0114 414.241Z" fill="url(#paint34_linear_8_15300)"/>
<path d="M-56.0614 388.773L-56.4867 384.123C10.9315 377.782 71.781 397.199 124.402 441.781C169.525 481.725 217.542 488.456 267.08 461.864C282.623 443.134 277.028 422.382 271.132 400.392C264.951 377.374 257.977 351.285 275.154 324.773L275.815 324.053C317.273 297.641 350.957 260.672 373.41 216.939C398.351 169.717 431.389 127.244 471.021 91.4546C514.189 61.2977 557.438 65.6905 603.246 70.3578C634.143 73.4921 666.044 76.5739 698.505 68.6981L699.733 73.4158C666.524 81.6823 634.206 78.358 602.763 75.2217C557.886 70.6542 515.44 66.3286 473.97 95.3115C434.876 130.641 402.255 172.53 377.577 219.09C354.87 263.419 320.784 300.909 278.812 327.717C262.975 352.452 269.499 376.138 275.56 399.228C281.62 422.319 287.708 444.63 270.271 465.305L269.909 465.52L269.507 465.759C218.021 493.565 168.167 486.674 121.178 445.333C69.7747 401.608 10.0879 382.589 -56.0614 388.773Z" fill="url(#paint35_linear_8_15300)"/>
<path d="M-49.5625 364.638L-49.8192 359.996C22.3753 356.098 86.9944 378.829 142.122 427.531C190.316 470.715 234.351 472.678 276.515 433.693C275.122 406.05 263.458 379.92 243.808 360.426L243.616 360.104L243.425 359.782C236.273 345.568 234.558 333.349 238.382 323.391C242.206 313.433 250.507 306.695 263.546 301.606C293.012 279.786 319.371 254.056 341.895 225.123C375.363 177.705 412.742 133.173 453.638 91.9919C501.716 53.7921 545.142 55.4637 591.218 57.1934C620.139 58.2889 650.112 59.4125 683.178 50.9046L684.446 55.5984C650.697 64.2402 620.411 63.1396 591.136 62.0909C545.944 60.3805 503.28 58.8001 456.869 95.6813C416.211 136.64 379.053 180.932 345.786 228.093C322.914 257.492 296.14 283.634 266.205 305.799L265.883 305.99C253.8 310.674 246.111 317.157 242.896 325.118C239.681 333.079 241.174 344.558 247.576 357.421C268.074 378.049 280.058 405.638 281.144 434.698L281.18 435.766L280.295 436.293C236.462 477.415 188.886 475.543 138.923 430.851C84.8358 383.165 21.3792 360.832 -49.5625 364.638Z" fill="url(#paint36_linear_8_15300)"/>
<path d="M-51.1622 342.271L-51.4189 337.629C21.0322 333.797 85.4406 357.089 139.801 407.064C187.688 450.921 231.77 453.238 274.287 414.206C269.681 384.969 254.289 358.517 231.146 340.065L230.787 339.461C221.637 325.183 218.677 312.888 221.988 302.8C225.299 292.711 233.696 285.862 247.33 280.581C276.833 258.22 304.069 233.016 328.646 205.331C365.836 159.909 405.89 116.911 448.562 76.5975C495.943 40.3381 537.448 40.4288 581.345 40.5124C608.922 40.4467 637.501 40.6016 669.716 31.946L671.025 36.6158C638.079 45.3249 609.322 45.3299 581.425 45.3141C538.322 45.1933 497.596 45.1296 451.648 80.3184C409.187 120.473 369.31 163.275 332.255 208.467C307.385 236.495 279.829 262.017 249.981 284.67L249.418 285.005C236.862 289.808 228.995 296.451 226.535 304.398C224.074 312.346 226.434 323.909 234.843 336.666C259.058 356.094 275.023 383.968 279.528 414.684L279.724 415.929L278.822 416.793C234.539 458.074 186.883 455.977 137.092 410.475C83.1373 361.456 19.972 338.514 -51.1622 342.271Z" fill="url(#paint37_linear_8_15300)"/>
<path d="M-61.6579 322.528L-61.9146 317.886C10.1994 314.036 74.1826 337.255 128.223 386.876C175.775 430.17 220.114 432.551 263.093 394.389C258.018 364.759 242.132 338.064 218.51 319.471L218.151 318.867C208.856 304.621 205.768 292.293 208.967 282.108C212.166 271.923 220.507 264.888 234.086 259.423C263.09 236.404 290.397 211.323 315.794 184.375C354.464 140.985 395.572 98.7606 438.219 59.2157C485.485 23.4056 527.741 22.2867 572.438 20.9681C599.207 20.1849 626.593 19.5243 657.312 11.65L658.54 16.3677C627.203 24.1193 599.567 25.092 572.67 25.8427C528.72 27.0436 487.243 28.1895 441.305 62.9367C399.067 102.347 357.945 144.362 319.435 187.656C293.777 214.858 266.193 240.177 236.898 263.416L236.335 263.751C223.834 268.739 216.079 275.478 213.61 283.595C211.141 291.711 213.686 303.218 222.062 316.104C246.759 335.705 263.177 363.883 268.052 395.033L268.249 396.279L267.346 397.142C222.537 437.538 174.745 435.304 125.232 390.454C71.9597 341.574 9.09904 318.777 -61.6579 322.528Z" fill="url(#paint38_linear_8_15300)"/>
<path d="M-74.599 308.653L-74.8797 303.971C-41.3168 301.492 -7.6006 305.926 24.1831 317.001C55.9668 328.075 85.1419 345.554 109.903 368.356C156.693 408.998 199.926 410.894 242.106 374.133C239.58 344.73 226.681 317.181 205.713 296.412L205.546 296.13L205.498 296.05C197.576 281.64 195.516 269.299 198.965 258.802C202.414 248.305 210.457 241.502 223.845 235.715C251.679 212.558 279.1 188.067 305.327 163.034C344.532 122.922 385.686 83.6129 427.57 46.2652C474.141 11.8495 518.554 6.94087 565.988 1.43332C592.859 -0.999711 619.498 -5.53934 645.658 -12.1436L646.966 -7.47382C620.59 -0.770622 593.72 3.81427 566.613 6.23707C520.023 11.5149 476.02 16.5616 430.64 50.0503C388.972 87.2142 347.924 126.516 308.711 166.523C282.29 191.781 254.668 216.391 226.656 239.708L226.093 240.043C214.025 245.209 206.406 252.085 203.495 260.465C200.584 268.845 202.413 280.614 209.52 293.656C231.301 315.395 244.585 344.21 246.968 374.89L247.077 376.079L246.071 376.677C202.198 415.535 155.352 413.883 106.913 371.661C82.5816 349.289 53.9157 332.152 22.6926 321.314C-8.53059 310.476 -41.6454 306.166 -74.599 308.653Z" fill="url(#paint39_linear_8_15300)"/>
<path d="M-88.3775 300.235L-88.8028 295.585C-57.2721 292.149 -25.37 295.363 4.84491 305.02C35.0598 314.676 62.9162 330.561 86.6163 351.649C132.384 388.649 174.273 389.111 214.7 353.066C216.122 323.914 207.553 295.146 190.411 271.52L190.1 270.997C179.066 242.204 186.853 221.606 213.13 209.837C248.538 155.748 340.597 91.3208 401.592 48.6488C407.185 44.7756 412.472 41.0296 417.422 37.5394C463.488 5.11307 510.943 -6.67315 561.219 -19.2116C584.698 -25.0656 608.868 -31.222 633.35 -39.4167L634.94 -34.9144C610.345 -26.5435 585.982 -20.436 562.399 -14.5744C512.493 -2.14697 465.391 9.59242 420.186 41.4519C415.236 44.9421 409.925 48.6478 404.315 52.5853C343.425 95.2496 251.407 159.653 216.698 213.27L216.319 213.823L215.716 214.182C191.353 224.866 184.41 242.946 194.191 269.543C212.025 294.243 220.828 324.322 219.126 354.737L219.114 355.724L218.31 356.203C176.262 394.193 130.864 393.967 83.3188 355.627C60.1567 334.907 32.9101 319.273 3.33669 309.732C-26.2367 300.191 -57.48 296.956 -88.3775 300.235Z" fill="url(#paint40_linear_8_15300)"/>
<path d="M-102.782 296.167L-103.481 291.516C-74.6691 286.686 -45.1485 288.219 -16.9894 296.009C11.1697 303.798 37.2852 317.654 59.5252 336.606C104.185 368.817 144.452 367.193 182.429 331.516C188.589 302.421 185.492 272.124 173.572 244.873L173.333 244.471C167.568 214.83 177.741 193.847 203.536 182.093C237.771 137.747 307.106 95.1785 362.861 60.9095C379.209 50.8538 394.777 41.3171 408.094 32.5749C457.597 0.0650962 512.308 -22.959 565.187 -45.2191C583.615 -52.9707 602.653 -60.9769 621.292 -69.2897L623.203 -64.979C604.565 -56.6661 585.486 -48.636 566.817 -40.7408C514.477 -18.583 459.83 4.18436 410.569 36.5506C397.131 45.3646 381.644 54.8534 365.215 64.9569C309.621 99.1302 240.406 141.627 206.784 185.445L206.301 185.732L205.818 186.019C181.616 196.881 172.43 215.587 177.737 243.267C190.074 271.555 193.183 303.01 186.622 333.162L186.467 333.908L185.864 334.267C146.419 371.688 102.82 373.661 56.3657 340.175C34.6404 321.692 9.14152 308.177 -18.348 300.576C-45.8374 292.974 -74.6538 291.47 -102.782 296.167Z" fill="url(#paint41_linear_8_15300)"/>
<path d="M-117.583 295.277L-118.851 290.583C-94.9966 283.765 -69.8555 282.759 -45.5298 287.648C-21.2042 292.537 1.59895 303.179 20.9728 318.685C60.1461 345.063 99.7721 345.291 138.622 319.502C161.15 298.686 161.776 271.181 162.472 242.053C163.164 211.73 163.884 180.355 189.714 153.923C226.922 115.763 285.073 86.9868 341.303 59.1911C368.043 46.0027 393.375 33.6521 415.096 20.726C445.827 2.43796 476.29 -17.2161 505.732 -36.2075C539.341 -57.8972 574.093 -80.3213 609.408 -100.792L611.802 -96.7687C576.568 -76.3457 541.856 -53.9455 508.488 -32.3994C478.966 -13.3601 448.503 6.29389 417.691 24.6298C395.809 37.6517 370.445 50.1306 343.577 63.2864C287.805 91.0277 229.943 119.468 193.26 157.044C168.758 182.139 168.058 212.631 167.522 241.936C166.986 271.24 166.16 300.608 141.877 322.959C101.063 350.298 59.8962 349.952 18.6878 322.442C-0.193571 307.332 -22.4267 296.977 -46.1408 292.249C-69.855 287.522 -94.3562 288.56 -117.583 295.277Z" fill="url(#paint42_linear_8_15300)"/>
<path d="M-132.736 296.449L-134.406 291.994C-90.3147 275.563 -48.3527 280.448 -9.74073 306.615C27.6473 326.972 64.1051 324.073 98.3244 297.825C124.461 275.842 130.578 245.941 137.103 214.435C143.873 181.693 150.855 147.844 181.659 122.539C218.148 92.3249 266.319 75.6998 313.059 59.5992C345.138 48.5183 378.326 37.1043 406.543 21.4565C449.505 -2.36617 485.531 -35.7373 520.334 -68.0531C544.701 -91.5084 570.403 -113.535 597.313 -134.022L600.07 -130.214C573.3 -109.855 547.742 -87.9506 523.525 -64.6127C488.401 -32.1054 452.237 1.40166 408.769 25.4713C380.085 41.3422 346.817 52.8041 314.513 63.9644C268.223 79.9061 220.398 96.38 184.666 126.035C155.181 150.446 148.37 183.484 141.796 215.456C135.425 246.489 128.787 278.444 101.346 301.53C65.3961 329.08 27.2682 332.101 -12.067 310.669C-29.3506 298.311 -49.4785 290.527 -70.5769 288.041C-91.6753 285.554 -113.058 288.447 -132.736 296.449Z" fill="url(#paint43_linear_8_15300)"/>
<path d="M-148.607 298.702L-149.635 294.137C-121.522 287.65 -92.0315 291.35 -63.5122 294.973C-19.7219 300.46 21.6529 305.64 57.0071 276.265C85.3403 252.757 97.6899 219.964 109.634 188.229C123.126 152.414 137.096 115.387 173.735 90.6417C210.374 65.8962 253.904 58.4069 296.021 51.1051C330.619 45.1723 366.599 38.9074 398.076 23.0629C446.772 -1.28428 482.164 -46.1555 516.082 -89.3862C537.588 -116.677 559.82 -144.945 585.165 -167.709L588.323 -164.141C563.494 -141.792 541.174 -113.581 519.804 -86.4255C485.419 -42.6987 449.841 2.50092 400.173 27.3182C368.06 43.3771 331.791 49.7051 296.8 55.7087C255.181 62.9321 212.068 70.3909 176.442 94.6423C140.817 118.894 127.34 154.918 114.132 190.021C101.977 222.317 89.4002 255.735 60.1169 280.026C23.1605 310.736 -21.1192 305.159 -63.9786 299.772C-92.2326 296.046 -121.298 292.421 -148.607 298.702Z" fill="url(#paint44_linear_8_15300)"/>
<path d="M-163.771 300.588L-165.482 296.158C-139.477 286.403 -113.406 285.272 -88.2577 284.146C-56.3893 282.779 -26.239 281.455 3.08544 263.731C40.8733 240.917 61.6968 202.318 81.8575 164.986C103.012 125.754 124.886 85.1684 166.521 62.1356C203.876 41.4314 244.036 40.361 282.872 39.2614C313.872 38.3575 345.883 37.5054 376.363 26.6674C435.804 5.73257 472.894 -53.7694 508.755 -111.124C528.704 -143.046 549.308 -176.065 573.247 -201.099L576.727 -197.722C553.215 -173.16 533.525 -141.719 512.768 -108.5C476.519 -50.4238 439.074 9.67102 378.065 31.2665C346.886 42.3025 314.376 43.233 283.208 44.1283C243.136 45.2554 205.328 46.3426 168.978 66.4484C128.575 88.8032 106.992 128.78 86.1521 167.443C65.7165 205.32 44.578 244.488 5.70402 267.948C-24.6261 286.27 -56.7435 287.676 -87.8573 289.029C-112.852 289.955 -138.482 291.096 -163.771 300.588Z" fill="url(#paint45_linear_8_15300)"/>
<path d="M-181.14 297.304C-157.738 280.98 -132.098 274.821 -107.327 268.851C-83.7925 263.182 -59.6559 257.427 -37.0537 242.778C0.434434 218.453 26.2113 179.849 51.1568 142.502C79.96 99.3728 109.708 54.8097 157.633 32.5552C197.155 14.2116 235.912 19.7518 273.417 25.1108C304.133 29.497 335.892 34.0797 368.003 25.4318C430.311 8.67474 467.151 -64.2448 503.107 -134.895C522.233 -172.593 540.252 -208.215 561.463 -233.532L565.041 -230.54C544.201 -205.607 526.247 -170.242 507.25 -132.784C471.002 -61.2517 433.501 12.661 369.215 29.9407C336.269 38.6497 303.932 34.1933 272.75 29.7572C234.226 24.2419 197.845 19.0316 159.601 36.7778C112.673 58.6024 84.7725 100.595 55.1859 145.062C29.9741 182.786 3.95512 221.806 -34.3777 246.634C-57.5029 261.594 -82.2103 267.58 -106.098 273.296C-131.609 279.487 -155.681 285.259 -178.344 301.088L-181.14 297.304Z" fill="url(#paint46_linear_8_15300)"/>
<path d="M-196.186 295.361C-175.591 280.653 -154.028 267.348 -131.645 255.537C-106.444 242.414 -82.4092 227.163 -59.8029 209.95C-31.8422 187.372 -6.90622 155.044 19.5056 120.802C58.0153 70.6431 97.9511 19.0364 149.066 -1.52012C190.758 -18.322 228.467 -4.74849 264.925 8.37072C291.272 17.8632 318.526 27.6882 347.088 25.8919C416.209 21.5894 458.526 -75.076 495.785 -160.014C513.858 -201.77 530.95 -240.872 549.418 -264.939L553.093 -262.059C534.964 -238.521 517.944 -199.571 499.937 -158.344C462.16 -71.899 419.131 26.225 347.345 30.5336C317.819 32.3585 290.157 22.3955 263.336 12.7487C226.037 -0.686802 190.829 -13.3517 150.785 2.74173C100.836 22.877 61.375 74.0921 23.1967 123.618C-3.40862 158.084 -28.4739 190.653 -56.8933 213.558C-79.7081 230.936 -103.963 246.336 -129.396 259.592C-151.592 271.29 -172.967 284.484 -193.373 299.081L-196.186 295.361Z" fill="url(#paint47_linear_8_15300)"/>
<path d="M-210.466 289.856C-186.215 272.21 -163.183 251.693 -140.94 231.864C-124.745 217.432 -108.042 202.48 -90.8943 188.734C-63.6433 167.068 -37.0379 134.891 -8.42135 101.516C37.6505 46.8569 85.1666 -9.86016 139.857 -29.1668C184.388 -44.7698 220.979 -26.118 256.44 -7.99238C282.044 5.10238 308.457 18.6418 337.919 19.089C395.685 20.236 415.413 -28.7162 434.525 -76.0489C437.246 -82.735 439.886 -89.3733 442.67 -95.7701C450.862 -114.865 457.925 -132.744 464.817 -150.085C484.598 -200.322 501.689 -243.728 537.806 -293.879L541.578 -291.111C505.783 -241.424 488.837 -198.323 469.162 -148.367C462.31 -131.049 455.231 -113.106 447.063 -93.9713C444.36 -87.6223 441.696 -81.0243 439.015 -74.3621C420.243 -27.831 398.945 24.8891 338.039 23.8668C307.687 23.2958 280.752 9.52163 254.732 -3.81555C218.549 -22.3293 184.314 -39.7679 141.777 -24.7516C88.3157 -5.84989 41.1309 50.2341 -4.58657 104.573C-33.1409 138.51 -60.1705 170.341 -87.6082 192.608C-104.635 206.282 -121.362 221.194 -137.477 235.578C-159.78 256.169 -183.112 275.617 -207.381 293.85L-210.466 289.856Z" fill="url(#paint48_linear_8_15300)"/>
<path d="M-223.981 279.592C-200.87 264.15 -184.011 243.329 -166.111 221.236C-151.154 202.8 -135.681 183.676 -116.142 167.908C-89.8163 146.793 -62.2675 115.743 -33.0668 82.8924C18.9181 24.7146 72.4601 -35.6975 129.614 -54.6175C176.504 -70.0993 212.022 -47.4851 246.37 -25.6461C271.362 -9.73541 297.171 6.72431 327.391 8.62763C386.176 12.2193 405.936 -41.4379 423.306 -88.769C426.103 -96.4264 428.785 -103.635 431.571 -110.577C439.945 -131.47 446.974 -150.963 453.799 -169.79C472.721 -222.294 489.064 -267.597 525.598 -320.068L529.427 -317.388C493.271 -265.47 477.017 -220.383 458.177 -168.2C451.375 -149.332 444.331 -129.776 435.916 -108.859C433.242 -101.819 430.528 -94.7559 427.684 -87.179C409.691 -38.3327 389.466 17.29 327.101 13.2674C295.662 11.3274 269.348 -5.43124 243.892 -21.6648C208.863 -43.9159 175.893 -64.995 131.076 -50.1479C75.1275 -31.6729 21.9407 28.1463 -29.5452 85.9726C-58.9231 118.983 -86.6328 150.129 -113.209 171.556C-132.394 187.005 -147.713 205.928 -162.533 224.228C-179.868 245.44 -197.655 267.631 -221.345 283.472L-223.981 279.592Z" fill="url(#paint49_linear_8_15300)"/>
<path d="M-234.126 267.487L-236.52 263.463C-220.149 253.721 -213.76 242.672 -206.951 230.774C-203.597 224.645 -199.821 218.757 -195.65 213.153C-175.431 186.9 -164.318 172.441 -134.367 147.807C-109.07 126.978 -81.7187 97.2437 -52.7555 65.7331C0.158385 8.20109 59.6087 -56.6531 118.485 -76.7069C167.354 -93.2572 201.924 -68.3904 235.365 -44.3226C259.854 -26.6956 285.095 -8.53575 316.211 -6.13128C375.419 -1.64678 394.912 -56.9429 412.271 -105.848C415.004 -113.522 417.534 -120.803 420.239 -127.698C428.835 -149.866 435.883 -170.515 442.793 -190.481C460.874 -243.575 476.528 -289.395 513.892 -342.577L517.72 -339.897C480.736 -287.268 465.186 -241.728 447.228 -188.98C440.382 -168.996 433.293 -148.324 424.746 -126.075C422.192 -119.107 419.518 -112.068 416.85 -104.378C399.88 -56.4668 378.774 3.16713 316.043 -1.56337C283.618 -4.06104 257.784 -22.5763 232.864 -40.6546C198.87 -65.1017 166.822 -88.2008 120.228 -72.4048C62.7185 -52.8919 3.39746 11.722 -48.9686 68.71C-78.0286 100.333 -105.477 130.179 -131.032 151.216C-160.564 175.547 -170.935 188.965 -191.573 215.793C-195.635 221.323 -199.291 227.141 -202.512 233.2C-209.941 245.521 -216.597 257.219 -234.126 267.487Z" fill="url(#paint50_linear_8_15300)"/>
<defs>
<linearGradient id="paint0_linear_8_15300" x1="1123.99" y1="636.328" x2="311.262" y2="1119.98" gradientUnits="userSpaceOnUse">
<stop stop-color="#FFFBEB" stop-opacity="0.26"/>
<stop offset="0.375" stop-color="#FFFBEB" stop-opacity="0.78"/>
<stop offset="0.619792" stop-color="#2FF1C3" stop-opacity="0.8"/>
<stop offset="0.838542" stop-color="#047857" stop-opacity="0.9"/>
<stop offset="1" stop-color="#01241A" stop-opacity="0.53"/>
</linearGradient>
<linearGradient id="paint1_linear_8_15300" x1="1113.32" y1="617.66" x2="296.726" y2="1103.61" gradientUnits="userSpaceOnUse">
<stop stop-color="#FFFBEB" stop-opacity="0.26"/>
<stop offset="0.375" stop-color="#FFFBEB" stop-opacity="0.78"/>
<stop offset="0.619792" stop-color="#2FF1C3" stop-opacity="0.8"/>
<stop offset="0.838542" stop-color="#047857" stop-opacity="0.9"/>
<stop offset="1" stop-color="#01241A" stop-opacity="0.53"/>
</linearGradient>
<linearGradient id="paint2_linear_8_15300" x1="1105.15" y1="603.468" x2="279.824" y2="1094.61" gradientUnits="userSpaceOnUse">
<stop stop-color="#FFFBEB" stop-opacity="0.26"/>
<stop offset="0.375" stop-color="#FFFBEB" stop-opacity="0.78"/>
<stop offset="0.619792" stop-color="#2FF1C3" stop-opacity="0.8"/>
<stop offset="0.838542" stop-color="#047857" stop-opacity="0.9"/>
<stop offset="1" stop-color="#01241A" stop-opacity="0.53"/>
</linearGradient>
<linearGradient id="paint3_linear_8_15300" x1="1099.57" y1="591.809" x2="261.135" y2="1090.76" gradientUnits="userSpaceOnUse">
<stop stop-color="#FFFBEB" stop-opacity="0.26"/>
<stop offset="0.375" stop-color="#FFFBEB" stop-opacity="0.78"/>
<stop offset="0.619792" stop-color="#2FF1C3" stop-opacity="0.8"/>
<stop offset="0.838542" stop-color="#047857" stop-opacity="0.9"/>
<stop offset="1" stop-color="#01241A" stop-opacity="0.53"/>
</linearGradient>
<linearGradient id="paint4_linear_8_15300" x1="1090.41" y1="574.862" x2="235.765" y2="1083.46" gradientUnits="userSpaceOnUse">
<stop stop-color="#FFFBEB" stop-opacity="0.26"/>
<stop offset="0.375" stop-color="#FFFBEB" stop-opacity="0.78"/>
<stop offset="0.619792" stop-color="#2FF1C3" stop-opacity="0.8"/>
<stop offset="0.838542" stop-color="#047857" stop-opacity="0.9"/>
<stop offset="1" stop-color="#01241A" stop-opacity="0.53"/>
</linearGradient>
<linearGradient id="paint5_linear_8_15300" x1="1078.15" y1="551.15" x2="204.44" y2="1071.09" gradientUnits="userSpaceOnUse">
<stop stop-color="#FFFBEB" stop-opacity="0.26"/>
<stop offset="0.375" stop-color="#FFFBEB" stop-opacity="0.78"/>
<stop offset="0.619792" stop-color="#2FF1C3" stop-opacity="0.8"/>
<stop offset="0.838542" stop-color="#047857" stop-opacity="0.9"/>
<stop offset="1" stop-color="#01241A" stop-opacity="0.53"/>
</linearGradient>
<linearGradient id="paint6_linear_8_15300" x1="1068.6" y1="532.257" x2="174.613" y2="1064.26" gradientUnits="userSpaceOnUse">
<stop stop-color="#FFFBEB" stop-opacity="0.26"/>
<stop offset="0.375" stop-color="#FFFBEB" stop-opacity="0.78"/>
<stop offset="0.619792" stop-color="#2FF1C3" stop-opacity="0.8"/>
<stop offset="0.838542" stop-color="#047857" stop-opacity="0.9"/>
<stop offset="1" stop-color="#01241A" stop-opacity="0.53"/>
</linearGradient>
<linearGradient id="paint7_linear_8_15300" x1="1056.41" y1="509.493" x2="142.114" y2="1053.59" gradientUnits="userSpaceOnUse">
<stop stop-color="#FFFBEB" stop-opacity="0.26"/>
<stop offset="0.375" stop-color="#FFFBEB" stop-opacity="0.78"/>
<stop offset="0.619792" stop-color="#2FF1C3" stop-opacity="0.8"/>
<stop offset="0.838542" stop-color="#047857" stop-opacity="0.9"/>
<stop offset="1" stop-color="#01241A" stop-opacity="0.53"/>
</linearGradient>
<linearGradient id="paint8_linear_8_15300" x1="1044.78" y1="486.834" x2="110.048" y2="1043.09" gradientUnits="userSpaceOnUse">
<stop stop-color="#FFFBEB" stop-opacity="0.26"/>
<stop offset="0.375" stop-color="#FFFBEB" stop-opacity="0.78"/>
<stop offset="0.619792" stop-color="#2FF1C3" stop-opacity="0.8"/>
<stop offset="0.838542" stop-color="#047857" stop-opacity="0.9"/>
<stop offset="1" stop-color="#01241A" stop-opacity="0.53"/>
</linearGradient>
<linearGradient id="paint9_linear_8_15300" x1="1029.16" y1="459.121" x2="76.93" y2="1025.79" gradientUnits="userSpaceOnUse">
<stop stop-color="#FFFBEB" stop-opacity="0.26"/>
<stop offset="0.375" stop-color="#FFFBEB" stop-opacity="0.78"/>
<stop offset="0.619792" stop-color="#2FF1C3" stop-opacity="0.8"/>
<stop offset="0.838542" stop-color="#047857" stop-opacity="0.9"/>
<stop offset="1" stop-color="#01241A" stop-opacity="0.53"/>
</linearGradient>
<linearGradient id="paint10_linear_8_15300" x1="1014.12" y1="431.474" x2="46.7698" y2="1007.14" gradientUnits="userSpaceOnUse">
<stop stop-color="#FFFBEB" stop-opacity="0.26"/>
<stop offset="0.375" stop-color="#FFFBEB" stop-opacity="0.78"/>
<stop offset="0.619792" stop-color="#2FF1C3" stop-opacity="0.8"/>
<stop offset="0.838542" stop-color="#047857" stop-opacity="0.9"/>
<stop offset="1" stop-color="#01241A" stop-opacity="0.53"/>
</linearGradient>
<linearGradient id="paint11_linear_8_15300" x1="1001.88" y1="409.528" x2="23.7465" y2="991.61" gradientUnits="userSpaceOnUse">
<stop stop-color="#FFFBEB" stop-opacity="0.26"/>
<stop offset="0.375" stop-color="#FFFBEB" stop-opacity="0.78"/>
<stop offset="0.619792" stop-color="#2FF1C3" stop-opacity="0.8"/>
<stop offset="0.838542" stop-color="#047857" stop-opacity="0.9"/>
<stop offset="1" stop-color="#01241A" stop-opacity="0.53"/>
</linearGradient>
<linearGradient id="paint12_linear_8_15300" x1="990.077" y1="388.229" x2="5.90883" y2="973.901" gradientUnits="userSpaceOnUse">
<stop stop-color="#FFFBEB" stop-opacity="0.26"/>
<stop offset="0.375" stop-color="#FFFBEB" stop-opacity="0.78"/>
<stop offset="0.619792" stop-color="#2FF1C3" stop-opacity="0.8"/>
<stop offset="0.838542" stop-color="#047857" stop-opacity="0.9"/>
<stop offset="1" stop-color="#01241A" stop-opacity="0.53"/>
</linearGradient>
<linearGradient id="paint13_linear_8_15300" x1="977.522" y1="368.137" x2="-6.84761" y2="953.929" gradientUnits="userSpaceOnUse">
<stop stop-color="#FFFBEB" stop-opacity="0.26"/>
<stop offset="0.375" stop-color="#FFFBEB" stop-opacity="0.78"/>
<stop offset="0.619792" stop-color="#2FF1C3" stop-opacity="0.8"/>
<stop offset="0.838542" stop-color="#047857" stop-opacity="0.9"/>
<stop offset="1" stop-color="#01241A" stop-opacity="0.53"/>
</linearGradient>
<linearGradient id="paint14_linear_8_15300" x1="964.523" y1="349.313" x2="-18.5192" y2="934.316" gradientUnits="userSpaceOnUse">
<stop stop-color="#FFFBEB" stop-opacity="0.26"/>
<stop offset="0.375" stop-color="#FFFBEB" stop-opacity="0.78"/>
<stop offset="0.619792" stop-color="#2FF1C3" stop-opacity="0.8"/>
<stop offset="0.838542" stop-color="#047857" stop-opacity="0.9"/>
<stop offset="1" stop-color="#01241A" stop-opacity="0.53"/>
</linearGradient>
<linearGradient id="paint15_linear_8_15300" x1="951.304" y1="330.762" x2="-30.0488" y2="914.759" gradientUnits="userSpaceOnUse">
<stop stop-color="#FFFBEB" stop-opacity="0.26"/>
<stop offset="0.375" stop-color="#FFFBEB" stop-opacity="0.78"/>
<stop offset="0.619792" stop-color="#2FF1C3" stop-opacity="0.8"/>
<stop offset="0.838542" stop-color="#047857" stop-opacity="0.9"/>
<stop offset="1" stop-color="#01241A" stop-opacity="0.53"/>
</linearGradient>
<linearGradient id="paint16_linear_8_15300" x1="937.661" y1="313.236" x2="-41.1577" y2="895.725" gradientUnits="userSpaceOnUse">
<stop stop-color="#FFFBEB" stop-opacity="0.26"/>
<stop offset="0.375" stop-color="#FFFBEB" stop-opacity="0.78"/>
<stop offset="0.619792" stop-color="#2FF1C3" stop-opacity="0.8"/>
<stop offset="0.838542" stop-color="#047857" stop-opacity="0.9"/>
<stop offset="1" stop-color="#01241A" stop-opacity="0.53"/>
</linearGradient>
<linearGradient id="paint17_linear_8_15300" x1="923.246" y1="296.518" x2="-52.0735" y2="876.925" gradientUnits="userSpaceOnUse">
<stop stop-color="#FFFBEB" stop-opacity="0.26"/>
<stop offset="0.375" stop-color="#FFFBEB" stop-opacity="0.78"/>
<stop offset="0.619792" stop-color="#2FF1C3" stop-opacity="0.8"/>
<stop offset="0.838542" stop-color="#047857" stop-opacity="0.9"/>
<stop offset="1" stop-color="#01241A" stop-opacity="0.53"/>
</linearGradient>
<linearGradient id="paint18_linear_8_15300" x1="912.014" y1="284.783" x2="-59.9266" y2="863.178" gradientUnits="userSpaceOnUse">
<stop stop-color="#FFFBEB" stop-opacity="0.26"/>
<stop offset="0.375" stop-color="#FFFBEB" stop-opacity="0.78"/>
<stop offset="0.619792" stop-color="#2FF1C3" stop-opacity="0.8"/>
<stop offset="0.838542" stop-color="#047857" stop-opacity="0.9"/>
<stop offset="1" stop-color="#01241A" stop-opacity="0.53"/>
</linearGradient>
<linearGradient id="paint19_linear_8_15300" x1="897.681" y1="268.387" x2="-70.599" y2="844.604" gradientUnits="userSpaceOnUse">
<stop stop-color="#FFFBEB" stop-opacity="0.26"/>
<stop offset="0.375" stop-color="#FFFBEB" stop-opacity="0.78"/>
<stop offset="0.619792" stop-color="#2FF1C3" stop-opacity="0.8"/>
<stop offset="0.838542" stop-color="#047857" stop-opacity="0.9"/>
<stop offset="1" stop-color="#01241A" stop-opacity="0.53"/>
</linearGradient>
<linearGradient id="paint20_linear_8_15300" x1="883.219" y1="251.866" x2="-81.9232" y2="826.216" gradientUnits="userSpaceOnUse">
<stop stop-color="#FFFBEB" stop-opacity="0.26"/>
<stop offset="0.375" stop-color="#FFFBEB" stop-opacity="0.78"/>
<stop offset="0.619792" stop-color="#2FF1C3" stop-opacity="0.8"/>
<stop offset="0.838542" stop-color="#047857" stop-opacity="0.9"/>
<stop offset="1" stop-color="#01241A" stop-opacity="0.53"/>
</linearGradient>
<linearGradient id="paint21_linear_8_15300" x1="868.817" y1="234.712" x2="-93.4294" y2="807.338" gradientUnits="userSpaceOnUse">
<stop stop-color="#FFFBEB" stop-opacity="0.26"/>
<stop offset="0.375" stop-color="#FFFBEB" stop-opacity="0.78"/>
<stop offset="0.619792" stop-color="#2FF1C3" stop-opacity="0.8"/>
<stop offset="0.838542" stop-color="#047857" stop-opacity="0.9"/>
<stop offset="1" stop-color="#01241A" stop-opacity="0.53"/>
</linearGradient>
<linearGradient id="paint22_linear_8_15300" x1="854.887" y1="217.343" x2="-104.866" y2="788.486" gradientUnits="userSpaceOnUse">
<stop stop-color="#FFFBEB" stop-opacity="0.26"/>
<stop offset="0.375" stop-color="#FFFBEB" stop-opacity="0.78"/>
<stop offset="0.619792" stop-color="#2FF1C3" stop-opacity="0.8"/>
<stop offset="0.838542" stop-color="#047857" stop-opacity="0.9"/>
<stop offset="1" stop-color="#01241A" stop-opacity="0.53"/>
</linearGradient>
<linearGradient id="paint23_linear_8_15300" x1="841.258" y1="199.66" x2="-116.322" y2="769.51" gradientUnits="userSpaceOnUse">
<stop stop-color="#FFFBEB" stop-opacity="0.26"/>
<stop offset="0.375" stop-color="#FFFBEB" stop-opacity="0.78"/>
<stop offset="0.619792" stop-color="#2FF1C3" stop-opacity="0.8"/>
<stop offset="0.838542" stop-color="#047857" stop-opacity="0.9"/>
<stop offset="1" stop-color="#01241A" stop-opacity="0.53"/>
</linearGradient>
<linearGradient id="paint24_linear_8_15300" x1="828.212" y1="180.758" x2="-128.081" y2="749.842" gradientUnits="userSpaceOnUse">
<stop stop-color="#FFFBEB" stop-opacity="0.26"/>
<stop offset="0.375" stop-color="#FFFBEB" stop-opacity="0.78"/>
<stop offset="0.619792" stop-color="#2FF1C3" stop-opacity="0.8"/>
<stop offset="0.838542" stop-color="#047857" stop-opacity="0.9"/>
<stop offset="1" stop-color="#01241A" stop-opacity="0.53"/>
</linearGradient>
<linearGradient id="paint25_linear_8_15300" x1="815.713" y1="161.035" x2="-139.977" y2="729.76" gradientUnits="userSpaceOnUse">
<stop stop-color="#FFFBEB" stop-opacity="0.26"/>
<stop offset="0.375" stop-color="#FFFBEB" stop-opacity="0.78"/>
<stop offset="0.619792" stop-color="#2FF1C3" stop-opacity="0.8"/>
<stop offset="0.838542" stop-color="#047857" stop-opacity="0.9"/>
<stop offset="1" stop-color="#01241A" stop-opacity="0.53"/>
</linearGradient>
<linearGradient id="paint26_linear_8_15300" x1="803.447" y1="142.072" x2="-147.214" y2="707.805" gradientUnits="userSpaceOnUse">
<stop stop-color="#FFFBEB" stop-opacity="0.26"/>
<stop offset="0.375" stop-color="#FFFBEB" stop-opacity="0.78"/>
<stop offset="0.619792" stop-color="#2FF1C3" stop-opacity="0.8"/>
<stop offset="0.838542" stop-color="#047857" stop-opacity="0.9"/>
<stop offset="1" stop-color="#01241A" stop-opacity="0.53"/>
</linearGradient>
<linearGradient id="paint27_linear_8_15300" x1="790.903" y1="127.033" x2="-145.237" y2="684.125" gradientUnits="userSpaceOnUse">
<stop stop-color="#FFFBEB" stop-opacity="0.26"/>
<stop offset="0.375" stop-color="#FFFBEB" stop-opacity="0.78"/>
<stop offset="0.619792" stop-color="#2FF1C3" stop-opacity="0.8"/>
<stop offset="0.838542" stop-color="#047857" stop-opacity="0.9"/>
<stop offset="1" stop-color="#01241A" stop-opacity="0.53"/>
</linearGradient>
<linearGradient id="paint28_linear_8_15300" x1="778.303" y1="114.371" x2="-136.077" y2="658.513" gradientUnits="userSpaceOnUse">
<stop stop-color="#FFFBEB" stop-opacity="0.26"/>
<stop offset="0.375" stop-color="#FFFBEB" stop-opacity="0.78"/>
<stop offset="0.619792" stop-color="#2FF1C3" stop-opacity="0.8"/>
<stop offset="0.838542" stop-color="#047857" stop-opacity="0.9"/>
<stop offset="1" stop-color="#01241A" stop-opacity="0.53"/>
</linearGradient>
<linearGradient id="paint29_linear_8_15300" x1="764.06" y1="102.337" x2="-122.363" y2="629.842" gradientUnits="userSpaceOnUse">
<stop stop-color="#FFFBEB" stop-opacity="0.26"/>
<stop offset="0.375" stop-color="#FFFBEB" stop-opacity="0.78"/>
<stop offset="0.619792" stop-color="#2FF1C3" stop-opacity="0.8"/>
<stop offset="0.838542" stop-color="#047857" stop-opacity="0.9"/>
<stop offset="1" stop-color="#01241A" stop-opacity="0.53"/>
</linearGradient>
<linearGradient id="paint30_linear_8_15300" x1="750.082" y1="91.5707" x2="-104.765" y2="600.285" gradientUnits="userSpaceOnUse">
<stop stop-color="#FFFBEB" stop-opacity="0.26"/>
<stop offset="0.375" stop-color="#FFFBEB" stop-opacity="0.78"/>
<stop offset="0.619792" stop-color="#2FF1C3" stop-opacity="0.8"/>
<stop offset="0.838542" stop-color="#047857" stop-opacity="0.9"/>
<stop offset="1" stop-color="#01241A" stop-opacity="0.53"/>
</linearGradient>
<linearGradient id="paint31_linear_8_15300" x1="740.216" y1="89.1786" x2="-80.602" y2="577.642" gradientUnits="userSpaceOnUse">
<stop stop-color="#FFFBEB" stop-opacity="0.26"/>
<stop offset="0.375" stop-color="#FFFBEB" stop-opacity="0.78"/>
<stop offset="0.619792" stop-color="#2FF1C3" stop-opacity="0.8"/>
<stop offset="0.838542" stop-color="#047857" stop-opacity="0.9"/>
<stop offset="1" stop-color="#01241A" stop-opacity="0.53"/>
</linearGradient>
<linearGradient id="paint32_linear_8_15300" x1="731.7" y1="88.4154" x2="-54.927" y2="556.532" gradientUnits="userSpaceOnUse">
<stop stop-color="#FFFBEB" stop-opacity="0.26"/>
<stop offset="0.375" stop-color="#FFFBEB" stop-opacity="0.78"/>
<stop offset="0.619792" stop-color="#2FF1C3" stop-opacity="0.8"/>
<stop offset="0.838542" stop-color="#047857" stop-opacity="0.9"/>
<stop offset="1" stop-color="#01241A" stop-opacity="0.53"/>
</linearGradient>
<linearGradient id="paint33_linear_8_15300" x1="723.49" y1="88.0741" x2="-30.0724" y2="536.515" gradientUnits="userSpaceOnUse">
<stop stop-color="#FFFBEB" stop-opacity="0.26"/>
<stop offset="0.375" stop-color="#FFFBEB" stop-opacity="0.78"/>
<stop offset="0.619792" stop-color="#2FF1C3" stop-opacity="0.8"/>
<stop offset="0.838542" stop-color="#047857" stop-opacity="0.9"/>
<stop offset="1" stop-color="#01241A" stop-opacity="0.53"/>
</linearGradient>
<linearGradient id="paint34_linear_8_15300" x1="711.699" y1="80.4338" x2="-11.5347" y2="510.825" gradientUnits="userSpaceOnUse">
<stop stop-color="#FFFBEB" stop-opacity="0.26"/>
<stop offset="0.375" stop-color="#FFFBEB" stop-opacity="0.78"/>
<stop offset="0.619792" stop-color="#2FF1C3" stop-opacity="0.8"/>
<stop offset="0.838542" stop-color="#047857" stop-opacity="0.9"/>
<stop offset="1" stop-color="#01241A" stop-opacity="0.53"/>
</linearGradient>
<linearGradient id="paint35_linear_8_15300" x1="700.241" y1="71.6152" x2="2.34909" y2="486.926" gradientUnits="userSpaceOnUse">
<stop stop-color="#FFFBEB" stop-opacity="0.26"/>
<stop offset="0.375" stop-color="#FFFBEB" stop-opacity="0.78"/>
<stop offset="0.619792" stop-color="#2FF1C3" stop-opacity="0.8"/>
<stop offset="0.838542" stop-color="#047857" stop-opacity="0.9"/>
<stop offset="1" stop-color="#01241A" stop-opacity="0.53"/>
</linearGradient>
<linearGradient id="paint36_linear_8_15300" x1="688.073" y1="59.1311" x2="9.08644" y2="463.192" gradientUnits="userSpaceOnUse">
<stop stop-color="#FFFBEB" stop-opacity="0.26"/>
<stop offset="0.375" stop-color="#FFFBEB" stop-opacity="0.78"/>
<stop offset="0.619792" stop-color="#2FF1C3" stop-opacity="0.8"/>
<stop offset="0.838542" stop-color="#047857" stop-opacity="0.9"/>
<stop offset="1" stop-color="#01241A" stop-opacity="0.53"/>
</linearGradient>
<linearGradient id="paint37_linear_8_15300" x1="676.848" y1="43.9291" x2="8.11811" y2="441.886" gradientUnits="userSpaceOnUse">
<stop stop-color="#FFFBEB" stop-opacity="0.26"/>
<stop offset="0.375" stop-color="#FFFBEB" stop-opacity="0.78"/>
<stop offset="0.619792" stop-color="#2FF1C3" stop-opacity="0.8"/>
<stop offset="0.838542" stop-color="#047857" stop-opacity="0.9"/>
<stop offset="1" stop-color="#01241A" stop-opacity="0.53"/>
</linearGradient>
<linearGradient id="paint38_linear_8_15300" x1="664.968" y1="24.515" x2="-2.595" y2="421.778" gradientUnits="userSpaceOnUse">
<stop stop-color="#FFFBEB" stop-opacity="0.26"/>
<stop offset="0.375" stop-color="#FFFBEB" stop-opacity="0.78"/>
<stop offset="0.619792" stop-color="#2FF1C3" stop-opacity="0.8"/>
<stop offset="0.838542" stop-color="#047857" stop-opacity="0.9"/>
<stop offset="1" stop-color="#01241A" stop-opacity="0.53"/>
</linearGradient>
<linearGradient id="paint39_linear_8_15300" x1="654.72" y1="3.08473" x2="-18.1523" y2="403.507" gradientUnits="userSpaceOnUse">
<stop stop-color="#FFFBEB" stop-opacity="0.26"/>
<stop offset="0.375" stop-color="#FFFBEB" stop-opacity="0.78"/>
<stop offset="0.619792" stop-color="#2FF1C3" stop-opacity="0.8"/>
<stop offset="0.838542" stop-color="#047857" stop-opacity="0.9"/>
<stop offset="1" stop-color="#01241A" stop-opacity="0.53"/>
</linearGradient>
<linearGradient id="paint40_linear_8_15300" x1="645.88" y1="-18.3611" x2="-36.3644" y2="387.639" gradientUnits="userSpaceOnUse">
<stop stop-color="#FFFBEB" stop-opacity="0.26"/>
<stop offset="0.375" stop-color="#FFFBEB" stop-opacity="0.78"/>
<stop offset="0.619792" stop-color="#2FF1C3" stop-opacity="0.8"/>
<stop offset="0.838542" stop-color="#047857" stop-opacity="0.9"/>
<stop offset="1" stop-color="#01241A" stop-opacity="0.53"/>
</linearGradient>
<linearGradient id="paint41_linear_8_15300" x1="638.384" y1="-40.5678" x2="-56.9338" y2="373.212" gradientUnits="userSpaceOnUse">
<stop stop-color="#FFFBEB" stop-opacity="0.26"/>
<stop offset="0.375" stop-color="#FFFBEB" stop-opacity="0.78"/>
<stop offset="0.619792" stop-color="#2FF1C3" stop-opacity="0.8"/>
<stop offset="0.838542" stop-color="#047857" stop-opacity="0.9"/>
<stop offset="1" stop-color="#01241A" stop-opacity="0.53"/>
</linearGradient>
<linearGradient id="paint42_linear_8_15300" x1="632.21" y1="-62.4764" x2="-78.7152" y2="360.59" gradientUnits="userSpaceOnUse">
<stop stop-color="#FFFBEB" stop-opacity="0.26"/>
<stop offset="0.375" stop-color="#FFFBEB" stop-opacity="0.78"/>
<stop offset="0.619792" stop-color="#2FF1C3" stop-opacity="0.8"/>
<stop offset="0.838542" stop-color="#047857" stop-opacity="0.9"/>
<stop offset="1" stop-color="#01241A" stop-opacity="0.53"/>
</linearGradient>
<linearGradient id="paint43_linear_8_15300" x1="626.698" y1="-85.4681" x2="-101.966" y2="348.155" gradientUnits="userSpaceOnUse">
<stop stop-color="#FFFBEB" stop-opacity="0.26"/>
<stop offset="0.375" stop-color="#FFFBEB" stop-opacity="0.78"/>
<stop offset="0.619792" stop-color="#2FF1C3" stop-opacity="0.8"/>
<stop offset="0.838542" stop-color="#047857" stop-opacity="0.9"/>
<stop offset="1" stop-color="#01241A" stop-opacity="0.53"/>
</linearGradient>
<linearGradient id="paint44_linear_8_15300" x1="615.975" y1="-117.674" x2="-131.634" y2="327.224" gradientUnits="userSpaceOnUse">
<stop stop-color="#FFFBEB" stop-opacity="0.26"/>
<stop offset="0.375" stop-color="#FFFBEB" stop-opacity="0.78"/>
<stop offset="0.619792" stop-color="#2FF1C3" stop-opacity="0.8"/>
<stop offset="0.838542" stop-color="#047857" stop-opacity="0.9"/>
<stop offset="1" stop-color="#01241A" stop-opacity="0.53"/>
</linearGradient>
<linearGradient id="paint45_linear_8_15300" x1="603.186" y1="-153.261" x2="-162.645" y2="302.481" gradientUnits="userSpaceOnUse">
<stop stop-color="#FFFBEB" stop-opacity="0.26"/>
<stop offset="0.375" stop-color="#FFFBEB" stop-opacity="0.78"/>
<stop offset="0.619792" stop-color="#2FF1C3" stop-opacity="0.8"/>
<stop offset="0.838542" stop-color="#047857" stop-opacity="0.9"/>
<stop offset="1" stop-color="#01241A" stop-opacity="0.53"/>
</linearGradient>
<linearGradient id="paint46_linear_8_15300" x1="596.6" y1="-177.508" x2="-186.407" y2="288.454" gradientUnits="userSpaceOnUse">
<stop stop-color="#FFFBEB" stop-opacity="0.26"/>
<stop offset="0.375" stop-color="#FFFBEB" stop-opacity="0.78"/>
<stop offset="0.619792" stop-color="#2FF1C3" stop-opacity="0.8"/>
<stop offset="0.838542" stop-color="#047857" stop-opacity="0.9"/>
<stop offset="1" stop-color="#01241A" stop-opacity="0.53"/>
</linearGradient>
<linearGradient id="paint47_linear_8_15300" x1="591.719" y1="-197.151" x2="-206.573" y2="277.908" gradientUnits="userSpaceOnUse">
<stop stop-color="#FFFBEB" stop-opacity="0.26"/>
<stop offset="0.375" stop-color="#FFFBEB" stop-opacity="0.78"/>
<stop offset="0.619792" stop-color="#2FF1C3" stop-opacity="0.8"/>
<stop offset="0.838542" stop-color="#047857" stop-opacity="0.9"/>
<stop offset="1" stop-color="#01241A" stop-opacity="0.53"/>
</linearGradient>
<linearGradient id="paint48_linear_8_15300" x1="586.351" y1="-215.874" x2="-224.33" y2="266.558" gradientUnits="userSpaceOnUse">
<stop stop-color="#FFFBEB" stop-opacity="0.26"/>
<stop offset="0.375" stop-color="#FFFBEB" stop-opacity="0.78"/>
<stop offset="0.619792" stop-color="#2FF1C3" stop-opacity="0.8"/>
<stop offset="0.838542" stop-color="#047857" stop-opacity="0.9"/>
<stop offset="1" stop-color="#01241A" stop-opacity="0.53"/>
</linearGradient>
<linearGradient id="paint49_linear_8_15300" x1="578.187" y1="-235.451" x2="-240.539" y2="251.768" gradientUnits="userSpaceOnUse">
<stop stop-color="#FFFBEB" stop-opacity="0.26"/>
<stop offset="0.375" stop-color="#FFFBEB" stop-opacity="0.78"/>
<stop offset="0.619792" stop-color="#2FF1C3" stop-opacity="0.8"/>
<stop offset="0.838542" stop-color="#047857" stop-opacity="0.9"/>
<stop offset="1" stop-color="#01241A" stop-opacity="0.53"/>
</linearGradient>
<linearGradient id="paint50_linear_8_15300" x1="568.234" y1="-255.014" x2="-253.911" y2="234.239" gradientUnits="userSpaceOnUse">
<stop stop-color="#FFFBEB" stop-opacity="0.26"/>
<stop offset="0.375" stop-color="#FFFBEB" stop-opacity="0.78"/>
<stop offset="0.619792" stop-color="#2FF1C3" stop-opacity="0.8"/>
<stop offset="0.838542" stop-color="#047857" stop-opacity="0.9"/>
<stop offset="1" stop-color="#01241A" stop-opacity="0.53"/>
</linearGradient>
</defs>
</svg>
