<svg width="128" height="128" viewBox="0 0 128 128" fill="none" xmlns="http://www.w3.org/2000/svg">
<rect width="128" height="128" rx="24" fill="transparent"/>
<circle cx="64" cy="66" r="39" fill="#01C246"/>
<path d="M101.615 60.6971C102.789 60.5628 103.856 61.4059 103.927 62.5854C104.411 70.5879 102.479 78.57 98.3568 85.4843C93.8683 93.0126 87.0314 98.8582 78.8972 102.122C70.7629 105.387 61.7817 105.889 53.3343 103.552C44.8868 101.215 37.4408 96.1678 32.141 89.1869C26.8412 82.206 23.981 73.6775 24.0001 64.9128C24.0192 56.148 26.9166 47.6322 32.2468 40.6744C37.577 33.7167 45.0449 28.7023 53.5025 26.402C61.2703 24.2894 69.478 24.5738 77.056 27.1907C78.1729 27.5764 78.6983 28.8304 78.2534 29.9251C77.8085 31.0198 76.5621 31.5401 75.4427 31.1616C68.7358 28.8935 61.4884 28.6648 54.6255 30.5313C47.0728 32.5854 40.4037 37.0634 35.6438 43.2768C30.8838 49.4902 28.2964 57.095 28.2793 64.9221C28.2623 72.7492 30.8165 80.3652 35.5493 86.5993C40.2821 92.8334 46.9316 97.3405 54.4753 99.4275C62.019 101.515 70.0394 101.066 77.3035 98.151C84.5675 95.236 90.673 90.0157 94.6813 83.2929C98.3235 77.1841 100.051 70.1419 99.6687 63.0721C99.6049 61.8922 100.441 60.8314 101.615 60.6971Z" fill="#3C3C3C"/>
<path fill-rule="evenodd" clip-rule="evenodd" d="M92 32C92 30.8954 91.1046 30 90 30C88.8954 30 88 30.8954 88 32V39H81C79.8954 39 79 39.8954 79 41C79 42.1046 79.8954 43 81 43H88V50C88 51.1046 88.8954 52 90 52C91.1046 52 92 51.1046 92 50V43H99C100.105 43 101 42.1046 101 41C101 39.8954 100.105 39 99 39H92V32Z" fill="#3C3C3C"/>
<path d="M63.8033 86C63.1643 86 62.6415 85.7792 62.2349 85.3375C61.8283 84.9253 61.6249 84.4101 61.6249 83.7918V80.7886C59.8532 80.6709 58.2703 80.3912 56.8761 79.9495C55.511 79.4784 54.3347 78.9632 53.3472 78.4038C52.6792 78.021 52.2581 77.5058 52.0838 76.858C51.9386 76.2103 51.9821 75.592 52.2145 75.0032C52.4468 74.4143 52.8389 74.0021 53.3908 73.7666C53.9426 73.531 54.5961 73.6341 55.3513 74.0757C56.1646 74.5468 57.2247 75.0032 58.5317 75.4448C59.8677 75.857 61.4652 76.0631 63.3241 76.0631C65.5024 76.0631 67.0708 75.6803 68.0293 74.9148C68.9878 74.1199 69.467 73.1335 69.467 71.9558C69.467 70.9842 69.133 70.1893 68.465 69.571C67.7969 68.9527 66.6061 68.4522 64.8925 68.0694L60.2744 67.0536C55.0173 65.9054 52.3888 63.1083 52.3888 58.6625C52.3888 56.1893 53.2165 54.1136 54.8721 52.4353C56.5567 50.7277 58.8076 49.6972 61.6249 49.3439V46.2082C61.6249 45.5899 61.8283 45.0747 62.2349 44.6625C62.6415 44.2208 63.1643 44 63.8033 44C64.4132 44 64.9215 44.2208 65.3281 44.6625C65.7638 45.0747 65.9816 45.5899 65.9816 46.2082V49.2997C67.1434 49.4175 68.3633 49.6972 69.6413 50.1388C70.9483 50.5804 72.081 51.184 73.0395 51.9495C73.5913 52.3912 73.9108 52.9064 73.998 53.4953C74.0851 54.0547 73.9834 54.5846 73.693 55.0852C73.4316 55.5563 73.0104 55.8801 72.4296 56.0568C71.8777 56.204 71.2242 56.0568 70.469 55.6151C69.6267 55.1146 68.6828 54.7171 67.6372 54.4227C66.5916 54.0988 65.3427 53.9369 63.8904 53.9369C62.0316 53.9369 60.5648 54.3638 59.4902 55.2177C58.4446 56.0421 57.9218 57.1314 57.9218 58.4858C57.9218 59.4869 58.2412 60.2965 58.8802 60.9148C59.5192 61.5037 60.6084 61.9748 62.1477 62.3281L66.8965 63.388C69.6848 64.0063 71.7325 64.9926 73.0395 66.347C74.3465 67.6719 75 69.4238 75 71.6025C75 74.0757 74.1577 76.1073 72.4731 77.6972C70.8176 79.2576 68.6537 80.244 65.9816 80.6562V83.7918C65.9816 84.4101 65.7783 84.9253 65.3717 85.3375C64.9651 85.7792 64.4423 86 63.8033 86Z" fill="white"/>
</svg> 